<?xml version="1.0" encoding="utf-8"?>
<!-- Generator: Adobe Illustrator 17.0.0, SVG Export Plug-In . SVG Version: 6.00 Build 0)  -->
<!DOCTYPE svg PUBLIC "-//W3C//DTD SVG 1.1//EN" "http://www.w3.org/Graphics/SVG/1.1/DTD/svg11.dtd">
<svg version="1.1" id="Layer_1" xmlns="http://www.w3.org/2000/svg" xmlns:xlink="http://www.w3.org/1999/xlink" x="0px" y="0px"
	 width="390px" height="90px" viewBox="0 0 390 90" enable-background="new 0 0 390 90" xml:space="preserve">
<g>
	<g>
		<circle fill="#F05A28" cx="49.051" cy="44.308" r="32.63"/>
		<path fill="#404041" d="M49.051,77.249c-18.164,0-32.941-14.777-32.941-32.941c0-18.164,14.777-32.941,32.941-32.941
			c18.163,0,32.94,14.777,32.94,32.941C81.991,62.472,67.214,77.249,49.051,77.249z M49.051,11.987
			c-17.821,0-32.32,14.499-32.32,32.321c0,17.821,14.499,32.32,32.32,32.32c17.821,0,32.32-14.499,32.32-32.32
			C81.371,26.486,66.872,11.987,49.051,11.987z"/>
	</g>
	<g>
		<path fill="#F16522" d="M49.077,7.305c-21.375,0-38.705,16.839-38.705,37.613c0,20.771,17.329,37.613,38.705,37.613
			c21.377,0,38.706-16.842,38.706-37.613C87.783,24.144,70.454,7.305,49.077,7.305z M49.077,76.888
			c-18.17,0-32.898-14.314-32.898-31.97c0-17.657,14.728-31.971,32.898-31.971c18.171,0,32.899,14.314,32.899,31.971
			C81.976,62.574,67.248,76.888,49.077,76.888z"/>
		<path fill="#FFFFFF" d="M49.077,83.048c-21.627,0-39.222-17.105-39.222-38.13c0-21.025,17.595-38.13,39.222-38.13
			c21.628,0,39.223,17.105,39.223,38.13C88.3,65.943,70.705,83.048,49.077,83.048z M49.077,7.822
			c-21.057,0-38.188,16.641-38.188,37.095c0,20.455,17.131,37.096,38.188,37.096c21.057,0,38.189-16.641,38.189-37.096
			C87.266,24.463,70.134,7.822,49.077,7.822z M49.077,77.405c-18.425,0-33.415-14.574-33.415-32.487
			c0-17.914,14.99-32.488,33.415-32.488c18.426,0,33.416,14.574,33.416,32.488C82.493,62.831,67.503,77.405,49.077,77.405z
			 M49.077,13.464c-17.855,0-32.381,14.11-32.381,31.454c0,17.343,14.526,31.453,32.381,31.453c17.855,0,32.382-14.11,32.382-31.453
			C81.459,27.574,66.933,13.464,49.077,13.464z"/>
	</g>
	<g id="CIRCLE_2_">
		<g>
			<path fill="#FFFFFF" d="M57.786,44.918c0-4.673-3.899-8.463-8.709-8.463c-4.809,0-8.708,3.79-8.708,8.463
				c0,4.673,3.899,8.463,8.708,8.463C53.887,53.381,57.786,49.591,57.786,44.918L57.786,44.918z"/>
			<path fill="#FFFFFF" d="M49.077,53.691c-4.973,0-9.018-3.936-9.018-8.774c0-4.838,4.046-8.773,9.018-8.773
				c4.973,0,9.019,3.936,9.019,8.773C58.097,49.756,54.05,53.691,49.077,53.691z M49.077,36.765c-4.63,0-8.398,3.657-8.398,8.153
				c0,4.496,3.767,8.153,8.398,8.153c4.631,0,8.399-3.657,8.399-8.153C57.476,40.422,53.708,36.765,49.077,36.765z"/>
		</g>
	</g>
	<g id="LINE_1_">
		<g>
			<path fill="#FFFFFF" d="M54.884,35.145c-3.593-2.015-8.019-2.015-11.612,0V20.47c0-3.117,2.599-5.643,5.805-5.643
				c3.207,0,5.807,2.526,5.807,5.643V35.145z"/>
			<path fill="#FFFFFF" d="M54.884,35.171c-0.004,0-0.009-0.001-0.013-0.003c-1.759-0.986-3.762-1.508-5.793-1.508
				c-2.031,0-4.034,0.521-5.793,1.508c-0.008,0.005-0.018,0.004-0.026,0c-0.008-0.005-0.013-0.013-0.013-0.022V20.47
				c0-3.126,2.616-5.669,5.831-5.669c3.216,0,5.832,2.543,5.832,5.669v14.675c0,0.009-0.005,0.018-0.013,0.022
				C54.893,35.17,54.888,35.171,54.884,35.171z M49.077,14.853c-3.187,0-5.779,2.52-5.779,5.617v14.631
				c1.757-0.977,3.755-1.493,5.78-1.493c2.025,0,4.023,0.516,5.78,1.493V20.47C54.858,17.373,52.265,14.853,49.077,14.853z"/>
		</g>
	</g>
	<g id="LINE_3_">
		<g>
			<path fill="#FFFFFF" d="M60.689,44.918c0,4.03-2.213,7.756-5.806,9.772l13.078,7.337c2.778,1.559,6.328,0.633,7.932-2.064
				c1.603-2.699,0.652-6.149-2.125-7.707L60.689,44.918z"/>
			<path fill="#FFFFFF" d="M70.86,62.81C70.86,62.81,70.86,62.81,70.86,62.81c-1.018,0-2.024-0.263-2.911-0.76l-13.078-7.337
				c-0.008-0.005-0.013-0.013-0.013-0.023c0-0.009,0.005-0.018,0.013-0.023c3.573-2.005,5.792-5.741,5.792-9.75
				c0-0.009,0.005-0.018,0.013-0.022c0.008-0.005,0.018-0.005,0.026,0l13.079,7.338c1.362,0.764,2.331,2,2.728,3.479
				c0.389,1.45,0.178,2.964-0.593,4.263C74.877,61.724,72.939,62.81,70.86,62.81z M54.936,54.69l13.038,7.315
				c0.879,0.493,1.876,0.754,2.885,0.754c2.061,0,3.982-1.076,5.011-2.809c0.764-1.287,0.973-2.787,0.588-4.223
				c-0.393-1.466-1.353-2.69-2.703-3.447l-13.041-7.317C60.699,48.958,58.489,52.678,54.936,54.69z"/>
		</g>
	</g>
	<g id="LINE_5_">
		<g>
			<path fill="#FFFFFF" d="M43.272,54.69c-3.592-2.016-5.805-5.742-5.805-9.772l-13.08,7.339c-2.777,1.557-3.728,5.007-2.123,7.707
				c2.364,3.981,7.128,2.515,7.93,2.064L43.272,54.69z"/>
			<path fill="#FFFFFF" d="M27.15,62.69C27.15,62.69,27.15,62.69,27.15,62.69c-1.504,0-3.577-0.471-4.909-2.714
				c-0.772-1.298-0.983-2.812-0.594-4.263c0.396-1.479,1.365-2.715,2.728-3.48l13.08-7.338c0.008-0.005,0.018-0.004,0.026,0
				c0.008,0.005,0.013,0.013,0.013,0.022c0,4.008,2.219,7.744,5.792,9.75c0.008,0.005,0.013,0.013,0.013,0.023
				c0,0.009-0.005,0.018-0.013,0.023L30.206,62.05C29.834,62.259,28.597,62.69,27.15,62.69z M37.441,44.962L24.4,52.279
				c-1.35,0.757-2.31,1.982-2.703,3.448c-0.385,1.437-0.176,2.936,0.589,4.223c1.32,2.222,3.374,2.689,4.864,2.689c0,0,0,0,0,0
				c1.437,0,2.662-0.427,3.031-0.634l13.038-7.315C39.667,52.677,37.457,48.957,37.441,44.962z"/>
		</g>
	</g>
	<g id="LWPOLYLINE">
		<g>
			<polyline fill="#FFFFFF" points="136.26,43.167 136.216,42.324 136.095,41.525 135.893,40.788 135.609,40.099 135.235,39.465 
				134.78,38.888 134.236,38.366 133.61,37.899 132.901,37.487 132.109,37.125 131.232,36.823 130.269,36.571 129.226,36.374 
				128.095,36.233 126.88,36.147 125.583,36.117 124.647,36.13 123.749,36.172 122.895,36.245 122.091,36.343 121.32,36.474 
				120.599,36.632 119.923,36.823 119.284,37.038 118.689,37.284 118.139,37.561 117.633,37.868 117.171,38.199 116.747,38.562 
				116.367,38.957 116.033,39.381 115.742,39.828 115.47,39.381 115.153,38.957 114.781,38.562 114.363,38.199 113.895,37.868 
				113.383,37.561 112.813,37.284 112.199,37.038 111.535,36.823 110.827,36.632 110.062,36.474 109.251,36.343 108.392,36.245 
				107.488,36.172 106.526,36.13 105.521,36.117 104.192,36.147 102.946,36.233 101.788,36.374 100.719,36.571 99.733,36.823 
				98.834,37.125 98.025,37.487 97.298,37.899 96.659,38.366 96.109,38.888 95.641,39.465 95.261,40.099 94.97,40.788 
				94.762,41.525 94.641,42.324 94.61,43.172 94.616,56.669 94.641,57.089 94.73,57.445 94.881,57.751 95.097,58.004 95.374,58.202 
				95.71,58.336 96.109,58.422 96.571,58.453 97.051,58.422 97.461,58.336 97.816,58.202 98.101,58.004 98.328,57.751 
				98.486,57.445 98.581,57.089 98.613,56.671 98.613,42.703 98.639,42.324 98.721,41.968 98.86,41.636 99.05,41.328 99.29,41.046 
				99.588,40.788 99.942,40.553 100.347,40.338 100.802,40.154 101.314,39.994 101.883,39.859 102.503,39.742 103.174,39.657 
				103.901,39.59 104.685,39.553 105.521,39.534 106.507,39.553 107.43,39.595 108.284,39.669 109.082,39.774 109.809,39.903 
				110.479,40.068 111.08,40.253 111.618,40.474 112.092,40.719 112.504,40.997 112.851,41.305 113.135,41.636 113.357,41.998 
				113.515,42.392 113.604,42.809 113.635,43.259 113.641,56.669 113.667,57.089 113.761,57.445 113.919,57.751 114.147,58.004 
				114.438,58.202 114.793,58.336 115.21,58.422 115.697,58.453 116.146,58.422 116.538,58.336 116.868,58.202 117.139,58.004 
				117.355,57.751 117.506,57.445 117.6,57.089 117.633,56.671 117.639,43.253 117.665,42.809 117.759,42.392 117.918,41.998 
				118.133,41.636 118.417,41.305 118.759,40.997 119.163,40.719 119.625,40.474 120.157,40.253 120.744,40.068 121.396,39.903 
				122.111,39.774 122.883,39.669 123.724,39.595 124.622,39.553 125.583,39.534 126.392,39.546 127.145,39.584 127.854,39.644 
				128.506,39.731 129.101,39.84 129.651,39.983 130.144,40.143 130.586,40.327 130.978,40.536 131.32,40.775 131.604,41.034 
				131.839,41.316 132.022,41.629 132.155,41.961 132.231,42.324 132.256,42.705 132.262,56.669 132.288,57.089 132.383,57.445 
				132.541,57.751 132.755,58.004 133.034,58.202 133.376,58.336 133.775,58.422 134.236,58.453 134.71,58.422 135.122,58.336 
				135.464,58.202 135.748,58.004 135.968,57.751 136.126,57.445 136.222,57.089 136.253,56.671 136.26,43.167 			"/>
			<path fill="#FFFFFF" d="M115.697,59.177c-0.015,0-0.031,0-0.046-0.001l-0.487-0.031c-0.034-0.002-0.068-0.007-0.101-0.014
				l-0.417-0.087c-0.037-0.008-0.073-0.018-0.109-0.032l-0.355-0.134c-0.053-0.02-0.104-0.046-0.151-0.078l-0.291-0.198
				c-0.048-0.033-0.092-0.071-0.131-0.114l-0.228-0.253c-0.042-0.046-0.077-0.097-0.106-0.153l-0.158-0.306
				c-0.024-0.046-0.043-0.095-0.056-0.146l-0.095-0.356c-0.012-0.047-0.02-0.094-0.023-0.142l-0.025-0.42
				c-0.001-0.015-0.001-0.029-0.001-0.043l-0.006-13.385l-0.026-0.375l-0.065-0.306l-0.113-0.28l-0.16-0.261l-0.214-0.249
				l-0.275-0.244l-0.336-0.228l-0.409-0.211l-0.478-0.197l-0.55-0.169l-0.626-0.155l-0.688-0.122l-0.766-0.101l-0.823-0.071
				l-0.909-0.042l-0.951-0.018l-0.821,0.019l-0.75,0.035l-0.699,0.064l-0.637,0.081l-0.581,0.11l-0.528,0.126l-0.46,0.143
				l-0.393,0.159l-0.341,0.181l-0.285,0.189l-0.221,0.192l-0.169,0.198l-0.131,0.212l-0.094,0.224l-0.055,0.239l-0.02,0.297v13.944
				c0,0.018-0.001,0.037-0.002,0.055l-0.032,0.418c-0.003,0.044-0.011,0.088-0.022,0.132l-0.095,0.356
				c-0.014,0.051-0.032,0.1-0.056,0.146l-0.158,0.306c-0.028,0.055-0.064,0.106-0.105,0.152l-0.227,0.253
				c-0.037,0.042-0.08,0.079-0.126,0.111l-0.285,0.198c-0.049,0.034-0.102,0.062-0.157,0.083l-0.355,0.134
				c-0.034,0.013-0.07,0.023-0.106,0.031l-0.41,0.087c-0.034,0.007-0.068,0.012-0.103,0.014l-0.48,0.031
				c-0.032,0.002-0.063,0.002-0.095,0l-0.462-0.031c-0.035-0.002-0.071-0.007-0.105-0.015l-0.4-0.087
				c-0.039-0.009-0.078-0.02-0.115-0.035l-0.335-0.134c-0.054-0.021-0.104-0.049-0.152-0.082l-0.277-0.198
				c-0.048-0.035-0.092-0.075-0.131-0.12l-0.216-0.253c-0.039-0.045-0.072-0.096-0.098-0.149l-0.151-0.306
				c-0.023-0.047-0.041-0.096-0.054-0.146l-0.088-0.356c-0.011-0.043-0.017-0.086-0.02-0.13l-0.026-0.42
				c-0.001-0.015-0.001-0.029-0.001-0.044l-0.006-13.497c0-0.009,0-0.018,0.001-0.027l0.031-0.848
				c0.001-0.027,0.004-0.054,0.008-0.082l0.121-0.799c0.005-0.03,0.011-0.06,0.019-0.089l0.208-0.737
				c0.008-0.029,0.018-0.057,0.03-0.084l0.291-0.689c0.013-0.031,0.029-0.062,0.046-0.091l0.38-0.634
				c0.017-0.029,0.037-0.057,0.058-0.083l0.468-0.577c0.02-0.024,0.041-0.047,0.064-0.069l0.55-0.522
				c0.022-0.021,0.046-0.041,0.071-0.059l0.639-0.467c0.023-0.016,0.046-0.032,0.071-0.045l0.727-0.412
				c0.02-0.011,0.04-0.022,0.061-0.031l0.809-0.362c0.021-0.01,0.043-0.018,0.065-0.026l0.899-0.302
				c0.017-0.006,0.034-0.011,0.051-0.015l0.986-0.253c0.016-0.004,0.032-0.008,0.049-0.011l1.069-0.197
				c0.015-0.003,0.029-0.005,0.044-0.007l1.158-0.141c0.013-0.002,0.025-0.003,0.038-0.004l1.246-0.086
				c0.011-0.001,0.022-0.001,0.033-0.002l1.329-0.03c0.008,0,0.017,0,0.026,0l1.005,0.013c0.008,0,0.015,0,0.023,0.001l0.962,0.042
				c0.009,0,0.017,0.001,0.026,0.002l0.904,0.073c0.008,0.001,0.016,0.001,0.024,0.002l0.86,0.098
				c0.011,0.001,0.022,0.003,0.033,0.005l0.81,0.131c0.011,0.002,0.021,0.004,0.032,0.006l0.765,0.158
				c0.014,0.003,0.028,0.006,0.042,0.01l0.708,0.191c0.011,0.003,0.023,0.006,0.034,0.01l0.664,0.215
				c0.015,0.005,0.031,0.011,0.046,0.017l0.614,0.245c0.016,0.007,0.033,0.014,0.048,0.021l0.57,0.278
				c0.019,0.009,0.037,0.019,0.055,0.03l0.512,0.307c0.016,0.009,0.031,0.019,0.046,0.03l0.468,0.331
				c0.019,0.014,0.038,0.029,0.057,0.044l0.418,0.363c0.018,0.016,0.035,0.032,0.052,0.05l0.373,0.395
				c0.019,0.02,0.037,0.041,0.053,0.063l0.026,0.035l0.039-0.05c0.015-0.018,0.03-0.036,0.046-0.053l0.38-0.395
				c0.016-0.017,0.033-0.033,0.051-0.048l0.424-0.363c0.016-0.013,0.032-0.026,0.049-0.038l0.462-0.331
				c0.015-0.011,0.031-0.021,0.046-0.031l0.505-0.307c0.016-0.01,0.033-0.019,0.049-0.027l0.55-0.278
				c0.016-0.008,0.033-0.016,0.05-0.023l0.595-0.245c0.015-0.006,0.03-0.012,0.045-0.017l0.639-0.215
				c0.011-0.004,0.022-0.007,0.034-0.01l0.676-0.191c0.014-0.004,0.028-0.007,0.042-0.011l0.722-0.158
				c0.011-0.003,0.023-0.005,0.034-0.007l0.771-0.131c0.011-0.002,0.022-0.004,0.033-0.005l0.803-0.098
				c0.009-0.001,0.018-0.002,0.026-0.003l0.854-0.073c0.009-0.001,0.018-0.001,0.027-0.002l0.898-0.042
				c0.008,0,0.016-0.001,0.024-0.001l0.936-0.013c0.009,0,0.018,0,0.027,0l1.297,0.03c0.011,0,0.023,0.001,0.034,0.002l1.215,0.086
				c0.013,0.001,0.026,0.002,0.039,0.004l1.131,0.141c0.015,0.002,0.03,0.004,0.045,0.007l1.043,0.197
				c0.017,0.003,0.033,0.007,0.049,0.011l0.963,0.253c0.017,0.005,0.035,0.01,0.052,0.016l0.877,0.302
				c0.022,0.008,0.044,0.016,0.066,0.026l0.792,0.362c0.021,0.01,0.042,0.021,0.063,0.032l0.708,0.412
				c0.024,0.014,0.047,0.029,0.069,0.046l0.626,0.467c0.024,0.018,0.047,0.037,0.068,0.058l0.544,0.522
				c0.024,0.023,0.047,0.048,0.067,0.074l0.455,0.577c0.02,0.025,0.038,0.052,0.055,0.08l0.374,0.634
				c0.017,0.03,0.033,0.06,0.046,0.092l0.284,0.689c0.011,0.027,0.021,0.055,0.029,0.084l0.203,0.737
				c0.008,0.028,0.014,0.056,0.018,0.084l0.121,0.799c0.004,0.023,0.006,0.047,0.007,0.071l0.044,0.843
				c0.001,0.013,0.001,0.025,0.001,0.038l-0.007,13.504c0,0.018-0.001,0.036-0.002,0.054l-0.032,0.418
				c-0.003,0.045-0.011,0.089-0.023,0.133l-0.095,0.356c-0.013,0.05-0.032,0.098-0.056,0.144l-0.158,0.306
				c-0.027,0.052-0.059,0.1-0.098,0.144l-0.22,0.253c-0.039,0.045-0.084,0.085-0.133,0.119l-0.285,0.198
				c-0.046,0.032-0.096,0.059-0.149,0.079l-0.342,0.134c-0.037,0.015-0.076,0.026-0.115,0.034l-0.411,0.087
				c-0.034,0.007-0.068,0.012-0.102,0.014l-0.474,0.031c-0.032,0.002-0.064,0.002-0.095,0l-0.461-0.031
				c-0.036-0.002-0.071-0.007-0.106-0.015l-0.398-0.087c-0.037-0.008-0.074-0.019-0.11-0.033l-0.342-0.134
				c-0.055-0.022-0.107-0.05-0.155-0.084l-0.279-0.198c-0.049-0.035-0.094-0.076-0.133-0.121l-0.215-0.253
				c-0.036-0.042-0.067-0.088-0.092-0.137l-0.158-0.306c-0.024-0.047-0.043-0.096-0.057-0.147l-0.094-0.356
				c-0.012-0.046-0.02-0.092-0.023-0.139l-0.027-0.42c-0.001-0.015-0.001-0.03-0.001-0.045l-0.005-13.94l-0.021-0.306l-0.053-0.251
				l-0.089-0.223l-0.126-0.216l-0.164-0.197l-0.213-0.194l-0.268-0.187l-0.324-0.173l-0.383-0.16l-0.444-0.144l-0.505-0.131
				l-0.551-0.102l-0.617-0.082l-0.679-0.058l-0.728-0.036l-0.784-0.012l-0.949,0.019l-0.864,0.041l-0.809,0.071l-0.739,0.101
				l-0.674,0.121l-0.608,0.154l-0.537,0.169l-0.471,0.196l-0.395,0.209l-0.33,0.228l-0.273,0.245l-0.213,0.248l-0.155,0.26
				l-0.116,0.288l-0.068,0.302l-0.021,0.364l-0.006,13.397c0,0.019-0.001,0.038-0.002,0.057l-0.033,0.418
				c-0.003,0.043-0.011,0.086-0.022,0.129l-0.094,0.356c-0.012,0.046-0.029,0.091-0.05,0.134l-0.151,0.306
				c-0.027,0.054-0.06,0.105-0.1,0.151l-0.216,0.253c-0.037,0.043-0.078,0.081-0.124,0.114l-0.271,0.198
				c-0.047,0.035-0.099,0.063-0.153,0.085l-0.329,0.134c-0.038,0.015-0.077,0.027-0.117,0.036l-0.392,0.087
				c-0.035,0.008-0.071,0.013-0.107,0.015l-0.449,0.031C115.73,59.177,115.713,59.177,115.697,59.177z M96.211,57.703l0.361,0.024
				l0.381-0.024l0.305-0.064l0.219-0.083l0.142-0.098l0.109-0.121l0.079-0.154l0.057-0.215l0.024-0.323V42.703
				c0-0.016,0.001-0.033,0.002-0.049l0.026-0.379c0.003-0.039,0.008-0.077,0.017-0.115l0.082-0.355
				c0.009-0.04,0.022-0.079,0.037-0.116l0.139-0.333c0.015-0.035,0.032-0.068,0.051-0.1l0.189-0.307
				c0.02-0.032,0.041-0.062,0.065-0.09l0.24-0.282c0.024-0.028,0.049-0.054,0.077-0.077l0.298-0.259
				c0.024-0.021,0.049-0.039,0.075-0.057l0.354-0.234c0.02-0.013,0.04-0.025,0.061-0.036l0.405-0.215
				c0.022-0.012,0.045-0.022,0.068-0.032l0.456-0.184c0.018-0.007,0.037-0.014,0.056-0.02l0.512-0.16
				c0.016-0.005,0.032-0.009,0.047-0.013l0.569-0.136c0.011-0.003,0.022-0.005,0.034-0.007l0.62-0.117
				c0.014-0.003,0.029-0.005,0.043-0.007l0.671-0.085c0.008-0.001,0.016-0.002,0.025-0.003l0.727-0.067
				c0.011-0.001,0.022-0.002,0.032-0.002l0.784-0.037l0.853-0.02c0.01,0,0.02-0.001,0.031,0l0.986,0.019l0.942,0.043
				c0.01,0,0.019,0.001,0.029,0.002l0.854,0.073c0.011,0.001,0.022,0.002,0.033,0.004l0.798,0.105
				c0.01,0.001,0.021,0.003,0.031,0.005l0.728,0.129c0.016,0.003,0.032,0.006,0.048,0.01l0.67,0.165
				c0.013,0.003,0.026,0.007,0.039,0.011l0.601,0.185c0.021,0.007,0.043,0.014,0.063,0.023l0.538,0.222
				c0.019,0.008,0.037,0.016,0.056,0.026l0.474,0.244c0.025,0.013,0.05,0.028,0.074,0.044l0.411,0.278
				c0.026,0.018,0.051,0.037,0.074,0.058l0.348,0.308c0.025,0.022,0.048,0.045,0.069,0.07l0.284,0.331
				c0.025,0.03,0.048,0.061,0.069,0.095l0.221,0.362c0.021,0.034,0.039,0.07,0.054,0.107l0.159,0.394
				c0.016,0.039,0.028,0.079,0.037,0.121l0.088,0.417c0.007,0.033,0.012,0.066,0.014,0.099l0.032,0.45
				c0.001,0.017,0.002,0.034,0.002,0.051l0.006,13.388l0.02,0.325l0.056,0.21l0.079,0.153l0.106,0.118l0.148,0.1l0.221,0.084
				l0.312,0.065l0.388,0.025l0.348-0.024l0.28-0.062l0.191-0.078l0.131-0.096l0.102-0.119l0.079-0.16l0.059-0.223l0.025-0.324
				l0.006-13.39c0-0.014,0-0.028,0.001-0.042l0.026-0.444c0.002-0.039,0.008-0.078,0.016-0.117l0.094-0.417
				c0.009-0.038,0.02-0.075,0.035-0.111l0.159-0.394c0.014-0.034,0.03-0.067,0.049-0.099l0.215-0.362
				c0.022-0.036,0.046-0.07,0.074-0.102l0.284-0.331c0.02-0.023,0.042-0.046,0.065-0.066l0.342-0.308
				c0.023-0.021,0.048-0.04,0.073-0.058l0.403-0.278c0.023-0.016,0.047-0.031,0.072-0.044l0.462-0.244
				c0.02-0.01,0.04-0.02,0.061-0.028l0.532-0.222c0.02-0.008,0.04-0.016,0.061-0.022l0.587-0.185
				c0.013-0.004,0.026-0.008,0.039-0.011l0.652-0.165c0.016-0.004,0.033-0.008,0.05-0.011l0.715-0.129
				c0.01-0.002,0.02-0.003,0.03-0.005l0.772-0.105c0.012-0.002,0.023-0.003,0.035-0.004l0.841-0.073
				c0.01-0.001,0.019-0.002,0.029-0.002l0.898-0.042l0.981-0.02c0.008,0,0.017,0,0.026,0l0.809,0.013c0.008,0,0.016,0,0.025,0.001
				l0.753,0.037c0.008,0,0.017,0.001,0.025,0.002l0.709,0.06c0.011,0.001,0.023,0.002,0.034,0.004l0.652,0.087
				c0.012,0.002,0.024,0.004,0.036,0.006l0.595,0.11c0.017,0.003,0.034,0.007,0.05,0.011l0.55,0.143
				c0.014,0.004,0.027,0.008,0.041,0.012l0.493,0.16c0.019,0.006,0.038,0.013,0.056,0.021l0.442,0.185
				c0.021,0.009,0.041,0.018,0.061,0.029l0.392,0.209c0.026,0.014,0.05,0.029,0.074,0.045l0.341,0.239
				c0.025,0.018,0.049,0.037,0.072,0.058l0.285,0.259c0.025,0.023,0.048,0.047,0.07,0.073l0.234,0.282
				c0.025,0.031,0.048,0.063,0.068,0.097l0.183,0.314c0.018,0.031,0.034,0.063,0.047,0.096l0.133,0.332
				c0.016,0.039,0.028,0.079,0.037,0.121l0.076,0.362c0.007,0.033,0.011,0.066,0.014,0.099l0.026,0.381
				c0.001,0.016,0.002,0.032,0.002,0.049l0.005,13.942l0.021,0.326l0.056,0.211l0.084,0.162l0.102,0.12l0.132,0.094l0.206,0.081
				l0.29,0.063l0.36,0.024l0.375-0.024l0.302-0.064l0.207-0.081l0.141-0.098l0.104-0.119l0.082-0.159l0.058-0.216l0.024-0.323
				l0.007-13.458l-0.041-0.789l-0.109-0.722l-0.18-0.653l-0.247-0.6l-0.323-0.548l-0.394-0.5l-0.475-0.456l-0.557-0.415
				l-0.642-0.373l-0.728-0.333l-0.819-0.281l-0.912-0.239l-0.996-0.188l-1.089-0.136l-1.179-0.083l-1.266-0.03l-0.91,0.012
				l-0.872,0.041l-0.828,0.07l-0.774,0.095l-0.738,0.125l-0.683,0.15l-0.638,0.181l-0.6,0.202l-0.547,0.225l-0.5,0.252l-0.458,0.278
				l-0.414,0.297l-0.374,0.32l-0.331,0.344l-0.292,0.37l-0.273,0.42c-0.136,0.209-0.369,0.339-0.618,0.33
				c-0.249-0.004-0.479-0.135-0.608-0.348l-0.254-0.418l-0.271-0.362l-0.32-0.339l-0.364-0.316l-0.416-0.294l-0.461-0.276
				l-0.518-0.252l-0.566-0.226l-0.624-0.202l-0.67-0.181l-0.728-0.151l-0.778-0.125l-0.831-0.095l-0.879-0.071l-0.937-0.041
				l-0.981-0.012l-1.3,0.03l-1.21,0.083l-1.117,0.136l-1.023,0.189l-0.936,0.24L99.098,37.8l-0.746,0.334l-0.661,0.374l-0.567,0.415
				l-0.482,0.458l-0.406,0.501l-0.328,0.546l-0.253,0.6l-0.184,0.65l-0.108,0.714l-0.029,0.794l0.006,13.462l0.02,0.332l0.054,0.216
				l0.077,0.155l0.099,0.116l0.134,0.095l0.199,0.079L96.211,57.703z"/>
		</g>
	</g>
	<g>
		<path fill="#FFFFFF" d="M174.665,41.697l-0.12-0.713l-0.19-0.657l-0.271-0.615l-0.343-0.565l-0.416-0.517l-0.5-0.468l-0.57-0.417
			l-0.645-0.376l-0.722-0.318l-0.796-0.277l-0.873-0.228l-0.949-0.178l-1.024-0.135l-1.101-0.08l-1.176-0.036l-4.388-0.007
			l-0.35,0.025l-0.296,0.073l-0.26,0.13l-0.208,0.178l-0.164,0.238l-0.121,0.284l-0.07,0.344l-0.031,0.394l0.031,0.406l0.07,0.356
			l0.121,0.295l0.164,0.247l0.208,0.196l0.26,0.142l0.296,0.086l0.349,0.03l5.054-0.006l1.1,0.056l0.975,0.134l0.835,0.221
			l0.702,0.314l0.563,0.405l0.424,0.491l0.291,0.585l0.159,0.671h-18.097l-1.201,0.03l-1.112,0.08l-1.045,0.13l-0.962,0.178
			l-0.885,0.235l-0.803,0.275l-0.727,0.333l-0.651,0.381l-0.576,0.43l-0.493,0.48l-0.417,0.528l-0.343,0.578l-0.265,0.627
			l-0.184,0.682l-0.107,0.725l-0.031,0.78l0.006,2.882l0.019,0.758l0.107,0.706l0.19,0.66l0.265,0.608l0.348,0.558l0.429,0.511
			l0.506,0.467l0.589,0.412l0.663,0.369l0.747,0.318l0.823,0.271l0.905,0.221l0.986,0.172l1.063,0.124l1.145,0.079l1.227,0.026
			h12.174l1.171-0.031l1.101-0.073l1.024-0.131l0.949-0.184l0.873-0.227l0.796-0.282l0.722-0.334l0.645-0.38l0.57-0.43l0.5-0.486
			l0.416-0.528l0.343-0.583l0.271-0.635l0.19-0.688l0.12-0.731l0.037-0.787l0.003-9.059L174.665,41.697z M170.728,50.358
			l-0.022,0.523l-0.05,0.478l-0.095,0.449l-0.14,0.411l-0.17,0.382l-0.216,0.349l-0.253,0.314l-0.29,0.282l-0.335,0.247
			l-0.374,0.215l-0.412,0.183l-0.454,0.148l-0.487,0.11l-0.531,0.086l-0.577,0.049l-0.606,0.013H151.97l-1.207-0.043l-1.042-0.13
			l-0.887-0.221l-0.727-0.306l-0.569-0.395l-0.411-0.478l-0.246-0.566l-0.095-0.656V48.79l0.076-0.694l0.228-0.608l0.379-0.51
			l0.538-0.419l0.683-0.319l0.841-0.234l0.987-0.135l1.144-0.043l19.067-0.005V50.358z"/>
		<path fill="#FFFFFF" d="M164.974,58.741H152.8l-1.242-0.026c-0.012,0-0.023-0.001-0.035-0.001l-1.145-0.079
			c-0.011-0.001-0.023-0.002-0.034-0.003l-1.063-0.124c-0.014-0.002-0.027-0.004-0.041-0.006l-0.986-0.172
			c-0.016-0.003-0.032-0.006-0.047-0.01l-0.905-0.221c-0.018-0.005-0.037-0.01-0.055-0.016l-0.823-0.271
			c-0.019-0.006-0.039-0.014-0.057-0.022l-0.747-0.318c-0.023-0.01-0.046-0.021-0.068-0.034l-0.663-0.369
			c-0.022-0.012-0.043-0.025-0.063-0.039l-0.589-0.412c-0.027-0.019-0.052-0.039-0.076-0.061l-0.506-0.467
			c-0.023-0.021-0.044-0.043-0.064-0.066l-0.429-0.511c-0.022-0.026-0.042-0.054-0.06-0.082l-0.348-0.558
			c-0.019-0.03-0.035-0.061-0.049-0.094l-0.265-0.608c-0.013-0.029-0.023-0.059-0.032-0.089l-0.19-0.66
			c-0.009-0.031-0.016-0.061-0.02-0.093l-0.107-0.706c-0.005-0.03-0.007-0.06-0.008-0.09l-0.019-0.758l-0.006-2.899
			c0-0.01,0-0.02,0.001-0.03l0.031-0.78c0.001-0.026,0.003-0.052,0.007-0.077l0.107-0.725c0.004-0.028,0.01-0.056,0.017-0.083
			l0.184-0.682c0.008-0.032,0.019-0.063,0.032-0.093l0.265-0.627c0.013-0.03,0.027-0.059,0.044-0.087l0.343-0.578
			c0.016-0.028,0.035-0.054,0.055-0.08l0.417-0.528c0.02-0.025,0.041-0.048,0.063-0.07l0.493-0.48
			c0.023-0.022,0.047-0.043,0.072-0.061l0.576-0.43c0.022-0.016,0.044-0.031,0.067-0.045l0.651-0.381
			c0.021-0.012,0.042-0.023,0.064-0.033l0.727-0.333c0.022-0.01,0.044-0.019,0.067-0.027l0.803-0.275
			c0.016-0.006,0.032-0.01,0.049-0.015l0.885-0.235c0.018-0.005,0.036-0.009,0.054-0.012l0.962-0.178
			c0.014-0.003,0.028-0.005,0.042-0.006l1.045-0.13c0.012-0.002,0.025-0.003,0.037-0.004l1.112-0.08
			c0.011-0.001,0.023-0.001,0.034-0.002l1.201-0.03l17.121,0l-0.063-0.127l-0.309-0.357l-0.433-0.312l-0.581-0.26l-0.735-0.195
			l-0.9-0.124l-1.05-0.054l-5.035,0.006c-0.017-0.005-0.042-0.001-0.064-0.003l-0.349-0.03c-0.047-0.004-0.093-0.013-0.138-0.026
			l-0.296-0.086c-0.051-0.015-0.1-0.035-0.147-0.06l-0.26-0.142c-0.054-0.03-0.104-0.066-0.149-0.108l-0.208-0.196
			c-0.041-0.038-0.076-0.081-0.107-0.127l-0.164-0.247c-0.026-0.04-0.049-0.082-0.067-0.126l-0.121-0.295
			c-0.018-0.043-0.031-0.088-0.04-0.134l-0.07-0.356c-0.006-0.028-0.009-0.056-0.012-0.085l-0.031-0.406
			c-0.003-0.038-0.003-0.075,0-0.113l0.031-0.394c0.002-0.03,0.007-0.059,0.013-0.088l0.07-0.344
			c0.01-0.047,0.024-0.093,0.043-0.138l0.121-0.284c0.019-0.045,0.042-0.087,0.07-0.127l0.164-0.238
			c0.036-0.052,0.078-0.099,0.126-0.14l0.208-0.178c0.045-0.038,0.094-0.071,0.146-0.097l0.26-0.13
			c0.048-0.024,0.099-0.043,0.152-0.056l0.296-0.073c0.04-0.01,0.08-0.016,0.12-0.019l0.35-0.025
			c0.018-0.001,0.037-0.002,0.053-0.002l4.388,0.007c0.007,0,0.014,0,0.021,0l1.176,0.036c0.01,0,0.02,0.001,0.031,0.002l1.101,0.08
			c0.014,0.001,0.028,0.002,0.042,0.004l1.024,0.135c0.013,0.002,0.026,0.004,0.038,0.006l0.949,0.178
			c0.017,0.003,0.033,0.007,0.05,0.011l0.873,0.228c0.019,0.005,0.037,0.01,0.055,0.017l0.796,0.277
			c0.018,0.006,0.036,0.013,0.054,0.021l0.722,0.318c0.025,0.011,0.049,0.023,0.073,0.037l0.645,0.376
			c0.022,0.013,0.043,0.026,0.063,0.041l0.57,0.417c0.023,0.017,0.046,0.036,0.067,0.056l0.5,0.468
			c0.025,0.023,0.048,0.048,0.069,0.074l0.416,0.517c0.02,0.025,0.038,0.051,0.055,0.078l0.343,0.565
			c0.016,0.027,0.031,0.055,0.043,0.083l0.271,0.615c0.013,0.03,0.024,0.06,0.033,0.091l0.19,0.657
			c0.008,0.027,0.014,0.054,0.018,0.081l0.12,0.713c0.005,0.027,0.008,0.054,0.009,0.082l0.04,0.75
			c0.001,0.013,0.001,0.026,0.001,0.039l-0.003,9.059c0,0.011,0,0.023-0.001,0.034l-0.037,0.787
			c-0.001,0.028-0.004,0.056-0.009,0.083l-0.12,0.731c-0.004,0.025-0.01,0.051-0.017,0.075l-0.19,0.688
			c-0.009,0.031-0.019,0.062-0.032,0.092l-0.271,0.635c-0.012,0.028-0.026,0.056-0.042,0.082l-0.343,0.583
			c-0.017,0.028-0.035,0.056-0.056,0.081l-0.416,0.528c-0.02,0.025-0.041,0.049-0.064,0.071l-0.5,0.486
			c-0.022,0.021-0.045,0.041-0.069,0.059l-0.57,0.43c-0.022,0.017-0.045,0.032-0.068,0.046l-0.645,0.38
			c-0.021,0.012-0.042,0.023-0.064,0.034l-0.722,0.334c-0.02,0.009-0.041,0.018-0.062,0.025l-0.796,0.282
			c-0.02,0.007-0.04,0.013-0.06,0.018l-0.873,0.227c-0.015,0.004-0.03,0.007-0.044,0.01l-0.949,0.184
			c-0.015,0.003-0.031,0.005-0.046,0.007l-1.024,0.131c-0.014,0.002-0.029,0.003-0.043,0.004l-1.101,0.073
			c-0.01,0.001-0.019,0.001-0.029,0.001l-1.171,0.031C164.987,58.741,164.981,58.741,164.974,58.741z M151.606,57.268l1.209,0.025
			l12.149,0l1.147-0.031l1.065-0.071l0.979-0.125l0.904-0.175l0.821-0.214l0.735-0.261l0.659-0.304l0.578-0.341l0.501-0.378
			l0.433-0.421l0.356-0.452l0.294-0.501l0.234-0.547l0.167-0.604l0.107-0.652l0.034-0.729l0.003-9.023l-0.037-0.69l-0.106-0.631
			l-0.165-0.57l-0.233-0.527l-0.293-0.483l-0.354-0.44l-0.431-0.403l-0.504-0.369l-0.577-0.336l-0.658-0.29l-0.742-0.258
			l-0.821-0.214l-0.905-0.169l-0.984-0.13l-1.064-0.078l-1.15-0.035l-4.351-0.007l-0.262,0.019l-0.158,0.039l-0.108,0.054
			l-0.069,0.059l-0.068,0.1l-0.064,0.15l-0.047,0.229l-0.023,0.293l0.024,0.307l0.048,0.245l0.067,0.164l0.078,0.118l0.08,0.075
			l0.109,0.059l0.152,0.044l0.247,0.022l5.022-0.006c0.009-0.001,0.025,0,0.038,0.001l1.1,0.056
			c0.021,0.001,0.041,0.003,0.062,0.006l0.975,0.134c0.029,0.004,0.058,0.01,0.086,0.017l0.835,0.221
			c0.038,0.01,0.075,0.023,0.11,0.039l0.702,0.314c0.045,0.02,0.088,0.045,0.127,0.073l0.563,0.405
			c0.046,0.033,0.088,0.072,0.125,0.114l0.424,0.491c0.04,0.046,0.073,0.097,0.1,0.151l0.291,0.585
			c0.025,0.049,0.043,0.102,0.056,0.156l0.159,0.671c0.051,0.215,0.001,0.442-0.137,0.616c-0.137,0.174-0.347,0.275-0.568,0.275
			h-18.097l-1.166,0.029l-1.077,0.077l-1.005,0.125l-0.913,0.169l-0.833,0.221l-0.745,0.255l-0.661,0.303l-0.585,0.342l-0.505,0.377
			l-0.425,0.414l-0.358,0.453l-0.293,0.494l-0.227,0.537l-0.16,0.593l-0.095,0.645l-0.029,0.726l0.006,2.866l0.018,0.696
			l0.093,0.615l0.164,0.569l0.225,0.516l0.293,0.47l0.367,0.437l0.436,0.403l0.518,0.362l0.597,0.333l0.684,0.292l0.767,0.253
			l0.854,0.209l0.942,0.164l1.025,0.119L151.606,57.268z M151.97,55.323c-0.009,0-0.017,0-0.026,0l-1.207-0.043
			c-0.021-0.001-0.042-0.002-0.063-0.005l-1.042-0.13c-0.029-0.004-0.057-0.009-0.086-0.016l-0.887-0.221
			c-0.036-0.009-0.072-0.021-0.106-0.035l-0.727-0.306c-0.046-0.02-0.09-0.044-0.132-0.073l-0.569-0.395
			c-0.05-0.035-0.096-0.076-0.136-0.123l-0.411-0.478c-0.047-0.055-0.086-0.117-0.115-0.183l-0.246-0.566
			c-0.026-0.059-0.043-0.121-0.052-0.184l-0.095-0.656c-0.005-0.035-0.008-0.069-0.008-0.104V48.79c0-0.026,0.001-0.053,0.004-0.079
			l0.076-0.694c0.007-0.06,0.021-0.119,0.042-0.175l0.228-0.608c0.024-0.064,0.057-0.124,0.097-0.178l0.379-0.51
			c0.039-0.052,0.084-0.099,0.136-0.139l0.538-0.419c0.043-0.034,0.089-0.062,0.139-0.085l0.683-0.319
			c0.036-0.017,0.074-0.031,0.113-0.042l0.841-0.234c0.031-0.009,0.063-0.015,0.096-0.02l0.987-0.135
			c0.024-0.003,0.048-0.005,0.071-0.006l1.144-0.043c0.009,0,0.018-0.001,0.027-0.001l19.067-0.005c0,0,0,0,0,0
			c0.192,0,0.376,0.076,0.512,0.212c0.136,0.136,0.212,0.32,0.212,0.512v4.536c0,0.01,0,0.02-0.001,0.031l-0.022,0.523
			c-0.001,0.015-0.002,0.029-0.003,0.044l-0.05,0.478c-0.003,0.025-0.007,0.051-0.012,0.076l-0.095,0.449
			c-0.006,0.028-0.014,0.056-0.023,0.083l-0.14,0.411c-0.007,0.02-0.015,0.04-0.024,0.06l-0.17,0.382
			c-0.013,0.03-0.029,0.059-0.046,0.087l-0.216,0.349c-0.016,0.025-0.033,0.05-0.052,0.073l-0.253,0.314
			c-0.018,0.023-0.038,0.045-0.059,0.065l-0.29,0.282c-0.024,0.023-0.049,0.044-0.075,0.064l-0.335,0.247
			c-0.022,0.016-0.045,0.031-0.069,0.045l-0.374,0.215c-0.021,0.012-0.043,0.023-0.066,0.034l-0.412,0.183
			c-0.023,0.01-0.046,0.019-0.07,0.027l-0.454,0.148c-0.021,0.007-0.043,0.013-0.064,0.018l-0.488,0.11
			c-0.014,0.003-0.029,0.006-0.043,0.008l-0.531,0.086c-0.018,0.003-0.037,0.005-0.055,0.007l-0.577,0.049
			c-0.015,0.001-0.031,0.002-0.046,0.002l-0.606,0.013L151.97,55.323z M151.983,53.875h13.734l0.568-0.012l0.526-0.045l0.482-0.079
			l0.433-0.098l0.386-0.126l0.344-0.153l0.306-0.176l0.262-0.193l0.223-0.217l0.197-0.245l0.166-0.269l0.136-0.307l0.116-0.34
			l0.078-0.37l0.043-0.418l0.02-0.486v-3.796l-18.329,0.005l-1.095,0.041l-0.903,0.124l-0.736,0.204l-0.554,0.259l-0.396,0.309
			l-0.26,0.349l-0.16,0.427l-0.062,0.564v2.922l0.074,0.509l0.164,0.377l0.279,0.325l0.431,0.3l0.606,0.255l0.79,0.197l0.967,0.12
			L151.983,53.875z"/>
	</g>
	<g>
		<path fill="#FFFFFF" d="M211.104,41.746l-0.12-0.725l-0.203-0.676l-0.291-0.627l-0.379-0.57l-0.468-0.529l-0.551-0.473
			l-0.632-0.423l-0.722-0.375l-0.809-0.326l-0.891-0.277l-0.974-0.227l-1.069-0.173l-1.151-0.128l-1.233-0.075l-1.322-0.023
			l-7.97-0.007l-1.404,0.03l-1.311,0.081l-1.22,0.122l-1.126,0.179l-1.037,0.221l-0.948,0.27l-0.855,0.325l-0.759,0.37l-0.676,0.417
			l-0.581,0.468l-0.488,0.523l-0.399,0.565l-0.31,0.615l-0.215,0.664l-0.127,0.713l-0.033,0.762l0.008,8.925l0.025,0.805l0.107,0.75
			l0.19,0.695l0.28,0.645l0.353,0.597l0.43,0.54l0.519,0.492l0.595,0.443l0.676,0.387l0.766,0.344l0.834,0.284l0.926,0.238
			l1.005,0.185l1.081,0.135l1.164,0.086l1.245,0.031h16.117v5.171l0.026,0.459l0.094,0.392l0.151,0.332l0.222,0.278l0.28,0.208
			l0.346,0.154l0.405,0.097l0.467,0.032l0.469-0.032l0.405-0.097l0.348-0.154l0.279-0.208l0.221-0.278l0.151-0.332l0.096-0.392
			l0.031-0.455l0.006-20.676L211.104,41.746z M190.326,54.599l-0.664-0.013l-0.619-0.037l-0.576-0.055l-0.538-0.086l-0.486-0.11
			l-0.455-0.136l-0.405-0.16l-0.361-0.184l-0.322-0.208l-0.286-0.233l-0.233-0.264l-0.196-0.283l-0.153-0.306l-0.107-0.333
			l-0.063-0.362l-0.025-0.382v-8.929l0.025-0.352l0.076-0.337l0.132-0.314l0.178-0.289l0.234-0.264l0.291-0.247l0.335-0.221
			l0.391-0.197l0.444-0.179l0.5-0.147l0.55-0.13l0.601-0.11l0.651-0.08l0.709-0.061l0.76-0.043l0.808-0.013l9.298-0.006l0.766,0.019
			l0.716,0.037l0.67,0.054l0.614,0.086l0.569,0.112l0.518,0.135l0.468,0.154l0.424,0.184l0.367,0.208l0.323,0.228l0.271,0.258
			l0.223,0.276l0.176,0.308l0.121,0.325l0.077,0.358l0.025,0.375l0.006,11.955H190.326z"/>
		<path fill="#FFFFFF" d="M209.142,65.864c-0.016,0-0.033-0.001-0.049-0.002l-0.467-0.032c-0.04-0.003-0.08-0.009-0.12-0.018
			l-0.405-0.097c-0.043-0.01-0.085-0.025-0.126-0.043l-0.346-0.154c-0.049-0.022-0.095-0.049-0.138-0.081l-0.28-0.209
			c-0.05-0.037-0.095-0.08-0.133-0.129l-0.222-0.278c-0.037-0.047-0.069-0.098-0.093-0.152l-0.151-0.332
			c-0.019-0.042-0.035-0.086-0.045-0.132l-0.094-0.392c-0.01-0.042-0.016-0.085-0.019-0.128l-0.026-0.459
			c-0.001-0.014-0.001-0.027-0.001-0.04v-4.447h-15.393l-1.264-0.031c-0.012,0-0.024-0.001-0.035-0.002l-1.164-0.086
			c-0.012-0.001-0.024-0.002-0.036-0.004l-1.081-0.135c-0.014-0.002-0.028-0.004-0.041-0.006l-1.005-0.185
			c-0.016-0.003-0.033-0.007-0.049-0.011l-0.926-0.238c-0.018-0.005-0.036-0.01-0.053-0.016l-0.834-0.284
			c-0.021-0.007-0.043-0.016-0.063-0.025l-0.766-0.344c-0.022-0.01-0.043-0.02-0.063-0.032l-0.676-0.387
			c-0.025-0.014-0.049-0.03-0.072-0.047l-0.595-0.443c-0.023-0.017-0.045-0.036-0.066-0.056l-0.519-0.492
			c-0.024-0.023-0.047-0.048-0.068-0.074l-0.43-0.54c-0.021-0.026-0.04-0.054-0.057-0.083l-0.353-0.597
			c-0.015-0.026-0.029-0.053-0.041-0.08l-0.279-0.645c-0.014-0.032-0.025-0.064-0.034-0.097l-0.19-0.695
			c-0.008-0.029-0.014-0.059-0.018-0.088l-0.107-0.75c-0.004-0.027-0.006-0.054-0.007-0.08l-0.025-0.805c0-0.007,0-0.014,0-0.021
			l-0.008-8.925c0-0.011,0-0.021,0.001-0.032l0.033-0.762c0.001-0.032,0.005-0.064,0.011-0.096l0.127-0.713
			c0.006-0.033,0.014-0.065,0.024-0.096l0.215-0.664c0.011-0.035,0.026-0.07,0.042-0.103l0.31-0.615
			c0.016-0.032,0.034-0.063,0.055-0.092l0.399-0.565c0.019-0.027,0.04-0.052,0.062-0.076l0.488-0.523
			c0.024-0.025,0.049-0.049,0.076-0.07l0.581-0.468c0.023-0.019,0.048-0.036,0.074-0.052l0.676-0.417
			c0.02-0.013,0.041-0.024,0.063-0.034l0.759-0.37c0.02-0.01,0.04-0.018,0.06-0.026l0.855-0.325c0.02-0.007,0.039-0.014,0.059-0.02
			l0.948-0.27c0.016-0.004,0.032-0.008,0.048-0.012l1.037-0.221c0.012-0.003,0.024-0.005,0.037-0.007l1.126-0.179
			c0.014-0.002,0.028-0.004,0.042-0.005l1.22-0.122c0.009-0.001,0.018-0.002,0.028-0.002l1.311-0.081
			c0.01-0.001,0.02-0.001,0.029-0.001l1.404-0.03l7.986,0.007l1.334,0.023c0.011,0,0.021,0.001,0.031,0.001l1.233,0.075
			c0.012,0.001,0.024,0.002,0.037,0.003l1.151,0.128c0.012,0.001,0.024,0.003,0.036,0.005l1.069,0.173
			c0.016,0.003,0.032,0.006,0.048,0.009l0.974,0.227c0.017,0.004,0.034,0.009,0.051,0.014l0.891,0.277
			c0.019,0.006,0.038,0.013,0.056,0.02l0.809,0.326c0.021,0.009,0.042,0.018,0.063,0.029l0.722,0.375
			c0.024,0.012,0.047,0.026,0.069,0.041l0.632,0.423c0.024,0.016,0.047,0.034,0.069,0.052l0.551,0.473
			c0.025,0.022,0.049,0.045,0.071,0.07l0.468,0.529c0.022,0.025,0.042,0.051,0.06,0.079l0.379,0.57
			c0.02,0.031,0.038,0.063,0.054,0.096l0.291,0.627c0.014,0.031,0.027,0.063,0.037,0.096l0.203,0.676
			c0.009,0.03,0.016,0.06,0.021,0.091l0.12,0.725c0.004,0.025,0.007,0.051,0.008,0.077l0.044,0.77
			c0.001,0.014,0.001,0.028,0.001,0.041l-0.006,20.676c0,0.017-0.001,0.033-0.002,0.05l-0.032,0.455
			c-0.003,0.041-0.009,0.082-0.019,0.122l-0.096,0.392c-0.011,0.043-0.025,0.086-0.044,0.127l-0.151,0.332
			c-0.024,0.054-0.056,0.105-0.093,0.152l-0.221,0.278c-0.039,0.049-0.084,0.092-0.134,0.13l-0.279,0.208
			c-0.043,0.032-0.09,0.06-0.14,0.082l-0.347,0.154c-0.04,0.018-0.082,0.032-0.125,0.042l-0.405,0.097
			c-0.039,0.009-0.08,0.015-0.12,0.018l-0.469,0.032C209.175,65.864,209.159,65.864,209.142,65.864z M208.784,64.39l0.358,0.024
			l0.36-0.024l0.281-0.067l0.212-0.094l0.139-0.104l0.107-0.135l0.086-0.189l0.065-0.267l0.025-0.368l0.006-20.631l-0.04-0.711
			l-0.106-0.641l-0.175-0.582l-0.246-0.53l-0.321-0.483l-0.402-0.455l-0.481-0.413l-0.563-0.377l-0.655-0.34l-0.749-0.302
			l-0.838-0.26l-0.925-0.215l-1.027-0.167l-1.115-0.124l-1.199-0.073l-1.306-0.023l-7.958-0.007l-1.373,0.029l-1.282,0.079
			l-1.186,0.119l-1.087,0.173l-0.995,0.212l-0.895,0.255l-0.795,0.303l-0.697,0.34l-0.607,0.375l-0.506,0.407l-0.419,0.449
			l-0.339,0.481l-0.261,0.517l-0.182,0.564l-0.11,0.616l-0.03,0.698l0.008,8.899l0.023,0.754l0.095,0.665l0.164,0.601l0.241,0.556
			l0.304,0.514l0.367,0.462l0.451,0.427l0.525,0.391l0.608,0.348l0.703,0.316l0.775,0.264l0.874,0.225l0.959,0.177l1.042,0.131
			l1.128,0.084l1.228,0.031l16.099,0c0.4,0,0.724,0.324,0.724,0.724v5.151l0.021,0.374l0.063,0.261l0.085,0.186l0.108,0.135
			l0.141,0.105l0.212,0.094L208.784,64.39z M207.151,55.323h-16.826l-0.677-0.013c-0.01,0-0.02,0-0.029-0.001L189,55.273
			c-0.009-0.001-0.017-0.001-0.026-0.002l-0.576-0.055c-0.015-0.001-0.031-0.003-0.046-0.006l-0.538-0.086
			c-0.015-0.002-0.03-0.005-0.045-0.009l-0.486-0.11c-0.016-0.004-0.032-0.008-0.048-0.013l-0.455-0.136
			c-0.02-0.006-0.04-0.013-0.059-0.02l-0.405-0.16c-0.022-0.009-0.043-0.018-0.063-0.029l-0.361-0.184
			c-0.022-0.011-0.043-0.023-0.063-0.037l-0.322-0.208c-0.022-0.015-0.044-0.03-0.065-0.047l-0.286-0.233
			c-0.031-0.025-0.059-0.052-0.085-0.082l-0.233-0.264c-0.019-0.021-0.037-0.044-0.053-0.068l-0.196-0.283
			c-0.019-0.028-0.037-0.058-0.052-0.088l-0.153-0.306c-0.016-0.033-0.03-0.066-0.041-0.101l-0.107-0.333
			c-0.01-0.032-0.018-0.065-0.024-0.098l-0.063-0.362c-0.004-0.025-0.007-0.051-0.009-0.076l-0.025-0.382
			c-0.001-0.016-0.002-0.032-0.002-0.048v-8.929c0-0.017,0.001-0.035,0.002-0.052l0.025-0.352c0.003-0.036,0.008-0.072,0.016-0.108
			l0.076-0.337c0.009-0.042,0.022-0.082,0.039-0.122l0.132-0.314c0.014-0.034,0.031-0.067,0.051-0.098l0.178-0.289
			c0.022-0.036,0.047-0.069,0.075-0.1l0.234-0.264c0.023-0.026,0.047-0.05,0.073-0.072l0.291-0.247
			c0.023-0.019,0.046-0.037,0.071-0.053l0.335-0.221c0.023-0.015,0.047-0.029,0.072-0.042l0.391-0.197
			c0.018-0.009,0.036-0.017,0.055-0.025l0.444-0.179c0.022-0.009,0.044-0.017,0.067-0.023l0.5-0.147
			c0.013-0.004,0.025-0.007,0.038-0.01l0.55-0.13c0.012-0.003,0.024-0.005,0.036-0.008l0.601-0.11
			c0.014-0.003,0.028-0.005,0.042-0.006l0.651-0.08c0.009-0.001,0.018-0.002,0.027-0.003l0.709-0.061l0.781-0.045
			c0.01-0.001,0.02-0.001,0.03-0.001l0.808-0.013l9.309-0.006l0.784,0.019l0.736,0.038l0.69,0.055
			c0.014,0.001,0.028,0.003,0.042,0.005l0.614,0.086c0.013,0.002,0.026,0.004,0.039,0.007l0.569,0.112
			c0.014,0.003,0.028,0.006,0.043,0.01l0.518,0.135c0.015,0.004,0.03,0.008,0.044,0.013l0.468,0.154
			c0.021,0.007,0.042,0.015,0.062,0.024l0.424,0.184c0.023,0.01,0.046,0.021,0.068,0.034l0.367,0.208
			c0.021,0.012,0.041,0.025,0.061,0.038l0.323,0.228c0.029,0.02,0.056,0.043,0.082,0.067l0.271,0.259
			c0.023,0.022,0.044,0.045,0.064,0.07l0.223,0.276c0.024,0.03,0.046,0.062,0.065,0.096l0.176,0.308
			c0.019,0.034,0.036,0.069,0.049,0.106l0.121,0.325c0.012,0.033,0.022,0.067,0.029,0.101l0.077,0.358
			c0.007,0.034,0.012,0.069,0.015,0.105l0.025,0.375c0.001,0.016,0.002,0.031,0.002,0.047l0.006,11.955
			c0,0.192-0.076,0.376-0.212,0.512C207.528,55.247,207.343,55.323,207.151,55.323z M189.69,53.863l0.649,0.012l16.087,0
			l-0.006-11.207l-0.02-0.298l-0.055-0.255l-0.082-0.22l-0.118-0.206l-0.156-0.194l-0.198-0.189l-0.25-0.176l-0.302-0.171
			l-0.358-0.156l-0.414-0.136l-0.475-0.123l-0.528-0.103l-0.574-0.081l-0.649-0.052l-0.695-0.036l-0.746-0.018l-9.28,0.007
			l-0.782,0.012l-0.745,0.042l-0.675,0.058l-0.617,0.076l-0.562,0.103l-0.513,0.121l-0.447,0.131l-0.383,0.155l-0.327,0.164
			l-0.263,0.173l-0.218,0.185l-0.158,0.179l-0.116,0.188l-0.086,0.204l-0.05,0.221l-0.02,0.272v8.879l0.021,0.319l0.048,0.274
			l0.075,0.233l0.106,0.212l0.142,0.206l0.165,0.187l0.209,0.171l0.258,0.167l0.297,0.152l0.344,0.136l0.402,0.12l0.44,0.099
			l0.493,0.079l0.54,0.052L189.69,53.863z"/>
	</g>
	<g id="LWPOLYLINE_5_">
		<g>
			<polyline fill="#FFFFFF" points="248.39,37.329 248.353,36.947 248.257,36.614 248.105,36.332 247.891,36.098 247.618,35.914 
				247.284,35.784 246.886,35.705 246.429,35.68 245.954,35.705 245.543,35.784 245.196,35.914 244.912,36.098 244.683,36.332 
				244.525,36.614 244.423,36.947 244.387,37.334 244.394,51.643 244.361,52.005 244.286,52.343 244.153,52.656 243.969,52.945 
				243.728,53.21 243.438,53.449 243.096,53.671 242.703,53.868 242.256,54.04 241.749,54.187 241.198,54.315 240.59,54.422 
				239.926,54.501 239.219,54.556 238.448,54.587 237.63,54.599 229.016,54.599 228.176,54.587 227.393,54.55 226.657,54.495 
				225.986,54.408 225.361,54.303 224.798,54.174 224.28,54.014 223.825,53.837 223.414,53.64 223.064,53.412 222.761,53.166 
				222.52,52.89 222.325,52.596 222.192,52.276 222.11,51.931 222.079,51.561 222.079,37.329 222.046,36.952 221.945,36.621 
				221.788,36.338 221.566,36.11 221.281,35.926 220.933,35.796 220.529,35.712 220.054,35.68 219.587,35.712 219.188,35.796 
				218.846,35.932 218.567,36.117 218.352,36.349 218.194,36.639 218.106,36.976 218.074,37.37 218.08,51.565 218.112,52.343 
				218.239,53.075 218.46,53.751 218.777,54.378 219.181,54.955 219.681,55.477 220.269,55.959 220.953,56.387 221.724,56.762 
				222.591,57.094 223.545,57.371 224.594,57.598 225.741,57.776 226.974,57.906 228.303,57.986 229.72,58.017 236.969,58.017 
				238.359,57.986 239.66,57.906 240.87,57.776 241.99,57.598 243.02,57.371 243.963,57.094 244.81,56.762 245.569,56.387 
				246.234,55.959 246.815,55.477 247.302,54.955 247.7,54.378 248.004,53.751 248.219,53.075 248.346,52.343 248.384,51.568 
				248.39,37.329 			"/>
			<path fill="#FFFFFF" d="M236.969,58.741h-7.25l-1.433-0.031c-0.009,0-0.018-0.001-0.028-0.001l-1.329-0.08
				c-0.011-0.001-0.021-0.001-0.032-0.003l-1.233-0.13c-0.012-0.001-0.024-0.003-0.035-0.004l-1.147-0.178
				c-0.014-0.002-0.028-0.005-0.042-0.008l-1.05-0.227c-0.016-0.004-0.033-0.008-0.048-0.012l-0.954-0.277
				c-0.019-0.006-0.039-0.012-0.058-0.019l-0.867-0.333c-0.019-0.007-0.039-0.016-0.057-0.025l-0.771-0.375
				c-0.023-0.012-0.046-0.024-0.068-0.038l-0.683-0.429c-0.026-0.016-0.051-0.034-0.074-0.053l-0.589-0.482
				c-0.023-0.019-0.044-0.039-0.064-0.06l-0.5-0.522c-0.025-0.027-0.049-0.055-0.07-0.085l-0.404-0.577
				c-0.02-0.028-0.038-0.058-0.053-0.089l-0.317-0.627c-0.017-0.033-0.031-0.067-0.042-0.102L217.55,53.3
				c-0.011-0.033-0.019-0.067-0.025-0.101l-0.127-0.731c-0.005-0.031-0.009-0.063-0.01-0.095l-0.032-0.779
				c0-0.01-0.001-0.019-0.001-0.029L217.35,37.37c0-0.02,0.001-0.039,0.002-0.059l0.032-0.394c0.003-0.042,0.011-0.084,0.021-0.124
				l0.088-0.337c0.015-0.057,0.037-0.113,0.065-0.165l0.158-0.289c0.028-0.052,0.063-0.1,0.103-0.143l0.214-0.232
				c0.04-0.043,0.084-0.081,0.133-0.113l0.28-0.185c0.042-0.028,0.086-0.051,0.133-0.069l0.341-0.136
				c0.038-0.015,0.077-0.027,0.117-0.035l0.399-0.085c0.033-0.007,0.067-0.012,0.101-0.014l0.467-0.031
				c0.033-0.002,0.064-0.002,0.097,0l0.475,0.031c0.034,0.002,0.067,0.007,0.1,0.014l0.404,0.084
				c0.036,0.007,0.071,0.018,0.105,0.03l0.348,0.13c0.049,0.018,0.096,0.042,0.14,0.07l0.285,0.184
				c0.046,0.03,0.088,0.064,0.127,0.104l0.222,0.228c0.044,0.046,0.082,0.097,0.113,0.152l0.157,0.282
				c0.025,0.045,0.045,0.092,0.06,0.141l0.101,0.331c0.015,0.048,0.024,0.098,0.029,0.148l0.033,0.377
				c0.002,0.021,0.003,0.042,0.003,0.063v14.202l0.024,0.286l0.056,0.236l0.083,0.201l0.131,0.197l0.169,0.194l0.225,0.182
				l0.279,0.181l0.344,0.165l0.405,0.158l0.467,0.144l0.517,0.118l0.591,0.1l0.637,0.082l0.717,0.054l0.752,0.035l0.828,0.012h8.604
				l0.806-0.013l0.74-0.029l0.679-0.053l0.63-0.075l0.568-0.099l0.513-0.119l0.459-0.133l0.385-0.148l0.325-0.163l0.274-0.178
				l0.219-0.18l0.163-0.179l0.119-0.187l0.084-0.197l0.051-0.227l0.025-0.283l-0.006-14.277c0-0.022,0.001-0.045,0.003-0.067
				l0.036-0.387c0.005-0.049,0.014-0.098,0.029-0.145l0.102-0.333c0.015-0.049,0.035-0.096,0.06-0.141l0.158-0.282
				c0.031-0.055,0.069-0.106,0.113-0.152l0.229-0.234c0.038-0.039,0.08-0.073,0.125-0.102l0.284-0.184
				c0.043-0.028,0.09-0.051,0.138-0.07l0.347-0.131c0.038-0.014,0.078-0.026,0.118-0.033l0.411-0.079
				c0.033-0.006,0.066-0.01,0.1-0.012l0.475-0.024c0.025-0.001,0.05-0.001,0.075,0l0.457,0.024c0.035,0.002,0.069,0.006,0.103,0.013
				l0.398,0.079c0.042,0.008,0.083,0.02,0.122,0.036l0.335,0.131c0.05,0.019,0.097,0.044,0.141,0.074l0.273,0.184
				c0.048,0.032,0.092,0.07,0.13,0.112l0.214,0.234c0.04,0.043,0.074,0.091,0.102,0.143l0.153,0.282
				c0.025,0.046,0.045,0.095,0.059,0.145l0.096,0.333c0.012,0.043,0.021,0.087,0.025,0.131l0.037,0.382
				c0.002,0.023,0.003,0.046,0.003,0.07l-0.006,14.24c0,0.012,0,0.024-0.001,0.035l-0.038,0.775
				c-0.002,0.029-0.005,0.059-0.01,0.087l-0.126,0.731c-0.006,0.033-0.014,0.065-0.024,0.096l-0.215,0.676
				c-0.011,0.033-0.023,0.065-0.038,0.096l-0.304,0.627c-0.016,0.033-0.035,0.065-0.055,0.095l-0.398,0.577
				c-0.02,0.029-0.043,0.057-0.067,0.083l-0.487,0.522c-0.021,0.023-0.044,0.044-0.067,0.063l-0.581,0.482
				c-0.022,0.019-0.046,0.036-0.07,0.051l-0.665,0.429c-0.023,0.015-0.047,0.028-0.071,0.04l-0.758,0.375
				c-0.018,0.009-0.037,0.017-0.056,0.025l-0.848,0.333c-0.02,0.008-0.04,0.015-0.061,0.021l-0.942,0.277
				c-0.016,0.005-0.032,0.009-0.048,0.012l-1.03,0.227c-0.014,0.003-0.028,0.006-0.042,0.008l-1.12,0.178
				c-0.012,0.002-0.024,0.003-0.036,0.005l-1.21,0.13c-0.011,0.001-0.022,0.002-0.033,0.003l-1.301,0.08
				c-0.009,0.001-0.019,0.001-0.028,0.001l-1.39,0.031C236.98,58.741,236.975,58.741,236.969,58.741z M228.332,57.262l1.403,0.031
				l7.226,0l1.368-0.031l1.271-0.078l1.175-0.126l1.081-0.172l0.985-0.217l0.888-0.26l0.789-0.31l0.694-0.343l0.595-0.383
				l0.512-0.424l0.419-0.449l0.336-0.488l0.257-0.531l0.184-0.579l0.11-0.639l0.035-0.713l0.006-14.187l-0.027-0.28l-0.056-0.193
				l-0.073-0.135l-0.096-0.105l-0.134-0.09l-0.2-0.078l-0.284-0.056l-0.367-0.019l-0.387,0.02l-0.301,0.058l-0.217,0.082
				l-0.15,0.097l-0.105,0.108l-0.073,0.131l-0.058,0.188l-0.026,0.279l0.006,14.275c0,0.022-0.001,0.043-0.003,0.065l-0.032,0.362
				c-0.003,0.031-0.008,0.062-0.014,0.092l-0.075,0.339c-0.01,0.044-0.023,0.086-0.041,0.127l-0.133,0.312
				c-0.015,0.036-0.034,0.071-0.055,0.104l-0.184,0.29c-0.022,0.035-0.047,0.068-0.076,0.099l-0.241,0.265
				c-0.024,0.026-0.049,0.05-0.076,0.073l-0.291,0.239c-0.021,0.017-0.042,0.033-0.064,0.047l-0.342,0.222
				c-0.023,0.015-0.046,0.028-0.07,0.04l-0.393,0.197c-0.021,0.011-0.042,0.02-0.064,0.028l-0.447,0.172
				c-0.019,0.007-0.039,0.014-0.059,0.02l-0.508,0.147c-0.013,0.004-0.025,0.007-0.038,0.01l-0.551,0.128
				c-0.013,0.003-0.026,0.006-0.039,0.008l-0.607,0.106c-0.013,0.002-0.026,0.004-0.039,0.006l-0.664,0.079
				c-0.009,0.001-0.019,0.002-0.029,0.003l-0.707,0.056c-0.009,0.001-0.019,0.001-0.028,0.002l-0.771,0.031l-0.835,0.013h-8.626
				l-0.85-0.013c-0.008,0-0.016,0-0.023-0.001l-0.783-0.037l-0.756-0.056c-0.013-0.001-0.026-0.002-0.039-0.004l-0.67-0.086
				c-0.01-0.001-0.019-0.003-0.028-0.004l-0.625-0.106c-0.014-0.002-0.027-0.005-0.04-0.008l-0.564-0.128
				c-0.018-0.004-0.036-0.009-0.053-0.014l-0.518-0.16c-0.017-0.005-0.033-0.011-0.049-0.017l-0.455-0.177
				c-0.017-0.007-0.034-0.014-0.05-0.022l-0.411-0.197c-0.028-0.014-0.056-0.029-0.082-0.046l-0.35-0.227
				c-0.021-0.014-0.042-0.029-0.061-0.045l-0.303-0.246c-0.033-0.026-0.063-0.056-0.09-0.087l-0.24-0.277
				c-0.02-0.023-0.039-0.048-0.056-0.073l-0.196-0.294c-0.026-0.039-0.048-0.081-0.066-0.124l-0.133-0.32
				c-0.015-0.036-0.027-0.073-0.036-0.111l-0.081-0.344c-0.008-0.035-0.014-0.07-0.017-0.105l-0.031-0.37
				c-0.002-0.02-0.003-0.041-0.003-0.061V37.36l-0.024-0.27l-0.057-0.185l-0.073-0.132l-0.098-0.1l-0.15-0.096l-0.223-0.083
				l-0.301-0.063l-0.376-0.025l-0.368,0.025l-0.289,0.061l-0.214,0.085l-0.144,0.095l-0.095,0.103l-0.073,0.133l-0.049,0.19
				l-0.024,0.301l0.006,14.151l0.029,0.717l0.11,0.633l0.188,0.574l0.269,0.532l0.343,0.489l0.431,0.45l0.519,0.425l0.612,0.383
				l0.708,0.344l0.81,0.311l0.9,0.261l1.004,0.217l1.108,0.172l1.199,0.126L228.332,57.262z"/>
		</g>
	</g>
	<g id="LWPOLYLINE_6_">
		<g>
			<polyline fill="#FFFFFF" points="260.524,32.726 260.478,32.226 260.344,31.789 260.117,31.426 259.8,31.125 259.396,30.892 
				258.903,30.726 258.314,30.633 257.638,30.603 257,30.633 256.441,30.726 255.973,30.892 255.594,31.125 255.297,31.426 
				255.089,31.789 254.962,32.226 254.924,32.729 254.962,33.222 255.089,33.646 255.297,34.002 255.594,34.297 255.973,34.524 
				256.441,34.685 257,34.783 257.638,34.814 258.314,34.783 258.903,34.685 259.396,34.524 259.8,34.297 260.117,34.002 
				260.344,33.646 260.478,33.222 260.521,32.729 260.524,32.726 			"/>
			<path fill="#FFFFFF" d="M257.638,35.538c-0.012,0-0.023,0-0.035-0.001l-0.639-0.031c-0.03-0.002-0.06-0.005-0.09-0.01
				l-0.558-0.098c-0.038-0.007-0.075-0.016-0.111-0.028l-0.468-0.161c-0.048-0.016-0.093-0.038-0.137-0.063l-0.379-0.227
				c-0.05-0.03-0.097-0.066-0.138-0.108l-0.297-0.295c-0.045-0.044-0.084-0.095-0.115-0.149l-0.207-0.356
				c-0.028-0.049-0.051-0.101-0.068-0.156l-0.128-0.424c-0.015-0.05-0.025-0.101-0.028-0.153l-0.038-0.492
				c-0.003-0.037-0.003-0.074,0-0.11l0.038-0.503c0.004-0.05,0.013-0.1,0.027-0.148l0.128-0.437
				c0.016-0.055,0.038-0.107,0.066-0.156l0.207-0.363c0.031-0.054,0.069-0.105,0.113-0.149l0.297-0.301
				c0.041-0.041,0.086-0.078,0.136-0.108l0.379-0.233c0.043-0.027,0.09-0.049,0.138-0.066l0.468-0.166
				c0.04-0.014,0.081-0.025,0.123-0.032l0.558-0.093c0.028-0.005,0.056-0.008,0.084-0.009l0.639-0.03
				c0.022-0.001,0.044-0.001,0.067,0l0.675,0.03c0.027,0.001,0.054,0.004,0.08,0.008l0.589,0.093
				c0.04,0.006,0.079,0.016,0.118,0.029l0.493,0.166c0.046,0.015,0.09,0.035,0.132,0.059l0.404,0.233
				c0.049,0.028,0.095,0.063,0.136,0.102l0.317,0.301c0.044,0.042,0.083,0.089,0.115,0.141l0.227,0.363
				c0.034,0.054,0.06,0.112,0.079,0.173l0.134,0.437c0.014,0.047,0.024,0.096,0.028,0.145l0.046,0.5
				c0.006,0.065,0.003,0.13-0.008,0.193l-0.038,0.433c-0.004,0.052-0.015,0.104-0.031,0.154l-0.134,0.424
				c-0.019,0.061-0.046,0.118-0.08,0.172l-0.227,0.356c-0.033,0.052-0.072,0.099-0.117,0.141l-0.317,0.295
				c-0.042,0.039-0.089,0.073-0.139,0.101l-0.404,0.227c-0.041,0.023-0.085,0.042-0.13,0.057l-0.493,0.161
				c-0.035,0.011-0.07,0.02-0.106,0.026l-0.589,0.098c-0.028,0.005-0.057,0.008-0.086,0.009l-0.675,0.031
				C257.66,35.537,257.649,35.538,257.638,35.538z M257.08,34.062l0.559,0.027l0.598-0.027l0.493-0.082l0.373-0.122l0.266-0.15
				l0.186-0.174l0.126-0.197l0.081-0.257l0.032-0.367l-0.032-0.346l-0.084-0.275l-0.127-0.204l-0.189-0.179l-0.267-0.154
				l-0.367-0.123l-0.489-0.077l-0.601-0.027l-0.563,0.027l-0.454,0.075l-0.336,0.119l-0.239,0.147l-0.169,0.172l-0.118,0.206
				l-0.082,0.282l-0.028,0.372l0.028,0.359l0.08,0.267l0.116,0.2l0.167,0.166l0.239,0.143l0.342,0.118L257.08,34.062z"/>
		</g>
	</g>
	<g id="LWPOLYLINE_7_">
		<g>
			<polyline fill="#FFFFFF" points="259.725,38.934 259.692,38.526 259.592,38.169 259.427,37.868 259.195,37.623 258.896,37.425 
				258.53,37.291 258.092,37.204 257.594,37.173 257.149,37.204 256.771,37.291 256.449,37.425 256.189,37.623 255.979,37.868 
				255.834,38.169 255.747,38.526 255.721,38.938 255.728,56.642 255.753,57.07 255.841,57.433 255.999,57.746 256.214,57.998 
				256.486,58.194 256.822,58.336 257.221,58.422 257.682,58.453 258.156,58.422 258.573,58.336 258.921,58.194 259.206,57.998 
				259.434,57.746 259.592,57.433 259.692,57.07 259.725,56.646 259.725,38.934 			"/>
			<path fill="#FFFFFF" d="M257.682,59.177c-0.016,0-0.032-0.001-0.048-0.002l-0.461-0.031c-0.035-0.002-0.07-0.007-0.105-0.015
				l-0.399-0.087c-0.044-0.009-0.087-0.023-0.128-0.04l-0.336-0.142c-0.05-0.021-0.098-0.048-0.142-0.08l-0.271-0.196
				c-0.046-0.033-0.089-0.072-0.126-0.116l-0.216-0.252c-0.038-0.044-0.071-0.094-0.097-0.146l-0.158-0.314
				c-0.025-0.049-0.044-0.101-0.057-0.155l-0.088-0.363c-0.01-0.042-0.017-0.085-0.019-0.128l-0.025-0.428
				c-0.001-0.014-0.001-0.028-0.001-0.042l-0.007-17.703c0-0.015,0-0.031,0.001-0.046l0.026-0.412
				c0.003-0.043,0.009-0.085,0.019-0.126l0.087-0.357c0.012-0.049,0.029-0.097,0.051-0.142l0.145-0.301
				c0.027-0.056,0.061-0.108,0.101-0.156l0.21-0.245c0.034-0.04,0.072-0.075,0.113-0.107l0.26-0.197
				c0.049-0.037,0.102-0.067,0.158-0.091l0.322-0.135c0.038-0.016,0.077-0.028,0.118-0.038l0.378-0.087
				c0.037-0.008,0.074-0.014,0.112-0.017l0.444-0.031c0.032-0.002,0.063-0.002,0.095,0l0.498,0.031
				c0.032,0.002,0.064,0.006,0.096,0.012l0.438,0.087c0.037,0.007,0.074,0.018,0.11,0.031l0.366,0.135
				c0.052,0.019,0.102,0.044,0.148,0.075l0.3,0.197c0.047,0.031,0.09,0.067,0.128,0.108l0.232,0.245
				c0.042,0.045,0.079,0.095,0.108,0.149l0.165,0.301c0.027,0.049,0.048,0.1,0.063,0.154l0.1,0.357
				c0.013,0.044,0.021,0.09,0.024,0.135l0.033,0.408c0.002,0.02,0.002,0.039,0.002,0.059v17.712c0,0.019-0.001,0.038-0.002,0.057
				l-0.033,0.424c-0.004,0.046-0.012,0.091-0.024,0.135l-0.1,0.363c-0.013,0.047-0.03,0.092-0.052,0.135l-0.159,0.314
				c-0.029,0.058-0.066,0.111-0.109,0.159l-0.228,0.252c-0.038,0.042-0.081,0.079-0.127,0.111l-0.285,0.196
				c-0.043,0.029-0.088,0.054-0.136,0.073l-0.348,0.142c-0.041,0.017-0.083,0.029-0.126,0.039l-0.417,0.087
				c-0.033,0.007-0.067,0.012-0.1,0.014l-0.474,0.031C257.713,59.177,257.698,59.177,257.682,59.177z M257.323,57.703l0.36,0.024
				l0.376-0.024l0.302-0.063l0.214-0.087l0.151-0.104l0.105-0.116l0.082-0.162l0.062-0.227l0.026-0.327V38.964l-0.025-0.31
				l-0.059-0.21l-0.08-0.146l-0.11-0.117l-0.16-0.105l-0.234-0.086l-0.335-0.066l-0.402-0.025l-0.34,0.024l-0.263,0.06l-0.18,0.075
				l-0.125,0.094l-0.098,0.115l-0.071,0.148l-0.054,0.221l-0.021,0.325l0.007,17.659l0.02,0.342l0.053,0.219l0.081,0.16l0.102,0.119
				l0.135,0.097l0.199,0.084L257.323,57.703z"/>
		</g>
	</g>
	<g id="LWPOLYLINE_8_">
		<g>
			<g>
				<polyline fill="#FFFFFF" points="296.968,42.237 296.923,41.501 296.802,40.806 296.592,40.167 296.303,39.565 295.922,39.018 
					295.461,38.514 294.917,38.058 294.284,37.654 293.563,37.291 292.759,36.983 291.861,36.719 290.876,36.498 289.8,36.332 
					288.629,36.215 287.378,36.14 286.031,36.117 277.949,36.11 276.618,36.14 275.379,36.215 274.222,36.338 273.159,36.504 
					272.172,36.719 271.281,36.983 270.466,37.296 269.744,37.654 269.105,38.058 268.554,38.514 268.087,39.018 267.713,39.565 
					267.416,40.161 267.213,40.806 267.088,41.501 267.054,42.239 267.062,56.669 267.081,57.089 267.174,57.445 267.327,57.751 
					267.548,58.004 267.828,58.202 268.174,58.336 268.587,58.422 269.061,58.453 269.528,58.422 269.934,58.336 270.274,58.202 
					270.553,58.004 270.774,57.751 270.933,57.445 271.027,57.089 271.058,56.671 271.058,42.237 271.084,41.906 271.154,41.599 
					271.267,41.316 271.426,41.052 271.629,40.806 271.874,40.584 272.165,40.383 272.502,40.204 272.88,40.043 273.312,39.909 
					273.778,39.792 274.291,39.7 274.855,39.626 275.455,39.571 276.106,39.54 276.797,39.534 287.269,39.527 287.953,39.54 
					288.592,39.571 289.194,39.626 289.743,39.7 290.255,39.792 290.723,39.909 291.14,40.043 291.521,40.204 291.856,40.383 
					292.147,40.584 292.394,40.806 292.597,41.052 292.754,41.316 292.868,41.599 292.938,41.906 292.963,42.239 292.969,56.669 
					292.988,57.089 293.076,57.445 293.235,57.751 293.449,58.004 293.735,58.202 294.076,58.336 294.487,58.422 294.962,58.453 
					295.429,58.422 295.834,58.336 296.181,58.202 296.46,58.004 296.683,57.751 296.833,57.445 296.929,57.089 296.96,56.671 
					296.968,42.237 				"/>
				<path fill="#FFFFFF" d="M269.061,59.177c-0.016,0-0.031-0.001-0.047-0.002l-0.474-0.031c-0.034-0.002-0.068-0.007-0.102-0.014
					l-0.413-0.087c-0.038-0.008-0.076-0.019-0.112-0.033l-0.347-0.134c-0.056-0.021-0.109-0.05-0.157-0.084l-0.279-0.198
					c-0.047-0.033-0.089-0.072-0.127-0.115l-0.221-0.253c-0.041-0.046-0.075-0.098-0.103-0.153l-0.153-0.306
					c-0.022-0.045-0.04-0.092-0.053-0.14l-0.093-0.356c-0.013-0.05-0.021-0.1-0.023-0.152l-0.019-0.42
					c0-0.011-0.001-0.021-0.001-0.032l-0.009-14.43c0-0.011,0-0.023,0.001-0.034l0.034-0.738c0.001-0.032,0.005-0.063,0.011-0.095
					l0.125-0.695c0.005-0.03,0.013-0.06,0.022-0.089l0.203-0.645c0.011-0.036,0.025-0.071,0.042-0.105l0.297-0.596
					c0.015-0.03,0.032-0.059,0.051-0.086l0.374-0.547c0.02-0.029,0.042-0.057,0.066-0.083l0.467-0.504
					c0.022-0.024,0.045-0.046,0.07-0.066l0.55-0.456c0.024-0.019,0.048-0.038,0.074-0.054l0.639-0.404
					c0.021-0.014,0.044-0.026,0.066-0.037l0.722-0.357c0.02-0.01,0.041-0.019,0.061-0.027l0.815-0.313
					c0.018-0.007,0.036-0.013,0.054-0.018l0.891-0.264c0.017-0.005,0.034-0.009,0.052-0.013l0.987-0.215
					c0.014-0.003,0.029-0.006,0.043-0.008l1.063-0.165c0.012-0.002,0.023-0.003,0.034-0.004l1.157-0.124
					c0.011-0.001,0.022-0.002,0.033-0.003l1.239-0.075c0.009-0.001,0.018-0.001,0.027-0.001l1.331-0.03l8.098,0.007l1.359,0.023
					c0.01,0,0.021,0.001,0.031,0.001l1.251,0.075c0.01,0.001,0.019,0.001,0.029,0.002l1.171,0.118
					c0.013,0.001,0.025,0.003,0.038,0.005l1.076,0.166c0.016,0.003,0.032,0.006,0.048,0.009l0.986,0.221
					c0.016,0.003,0.031,0.007,0.046,0.012l0.898,0.264c0.018,0.005,0.036,0.011,0.054,0.018l0.804,0.307
					c0.023,0.009,0.045,0.019,0.067,0.03l0.72,0.363c0.022,0.011,0.043,0.023,0.064,0.037l0.633,0.404
					c0.026,0.017,0.051,0.035,0.075,0.055l0.545,0.456c0.025,0.021,0.048,0.043,0.07,0.067l0.461,0.504
					c0.022,0.024,0.042,0.049,0.06,0.075l0.381,0.547c0.022,0.032,0.041,0.065,0.058,0.1l0.289,0.602
					c0.014,0.029,0.026,0.058,0.036,0.088l0.209,0.639c0.011,0.033,0.019,0.067,0.025,0.101l0.121,0.695
					c0.005,0.026,0.008,0.053,0.009,0.08l0.045,0.736c0.001,0.015,0.001,0.03,0.001,0.045l-0.007,14.434
					c0,0.018-0.001,0.036-0.002,0.054l-0.032,0.418c-0.003,0.045-0.011,0.091-0.023,0.135l-0.096,0.356
					c-0.012,0.044-0.029,0.088-0.049,0.129l-0.15,0.306c-0.028,0.058-0.064,0.112-0.107,0.16l-0.222,0.253
					c-0.037,0.042-0.079,0.08-0.125,0.113l-0.279,0.198c-0.049,0.035-0.102,0.063-0.158,0.085l-0.347,0.134
					c-0.035,0.014-0.072,0.024-0.109,0.032l-0.404,0.087c-0.034,0.007-0.069,0.012-0.104,0.015l-0.468,0.031
					c-0.031,0.002-0.063,0.002-0.095,0l-0.475-0.031c-0.035-0.002-0.069-0.007-0.103-0.014l-0.41-0.087
					c-0.039-0.008-0.078-0.02-0.115-0.035l-0.341-0.134c-0.052-0.02-0.101-0.046-0.147-0.078l-0.286-0.198
					c-0.052-0.036-0.1-0.079-0.141-0.128l-0.214-0.253c-0.035-0.042-0.066-0.087-0.091-0.136l-0.158-0.306
					c-0.026-0.051-0.046-0.104-0.06-0.159l-0.088-0.356c-0.011-0.046-0.018-0.093-0.02-0.14l-0.019-0.42
					c-0.001-0.011-0.001-0.022-0.001-0.033l-0.006-14.403l-0.019-0.253l-0.045-0.197l-0.072-0.178l-0.1-0.168l-0.133-0.161
					l-0.173-0.155l-0.219-0.152l-0.27-0.144l-0.32-0.135l-0.364-0.117l-0.421-0.105l-0.472-0.085l-0.519-0.069l-0.572-0.053
					l-0.612-0.03l-0.673-0.013l-10.459,0.006l-0.671,0.006l-0.621,0.029l-0.571,0.053l-0.533,0.069l-0.471,0.085l-0.423,0.106
					l-0.378,0.118l-0.316,0.134l-0.271,0.145l-0.219,0.151l-0.171,0.155l-0.135,0.163l-0.1,0.167l-0.071,0.178l-0.046,0.199
					l-0.019,0.249v14.406c0,0.018-0.001,0.036-0.002,0.054l-0.031,0.418c-0.003,0.044-0.01,0.088-0.022,0.131l-0.094,0.356
					c-0.014,0.052-0.033,0.102-0.057,0.149l-0.159,0.306c-0.027,0.052-0.06,0.1-0.098,0.144l-0.221,0.253
					c-0.037,0.042-0.079,0.081-0.126,0.113l-0.278,0.198c-0.048,0.034-0.099,0.062-0.154,0.083l-0.341,0.134
					c-0.037,0.015-0.075,0.026-0.114,0.034l-0.406,0.087c-0.034,0.007-0.068,0.012-0.103,0.014l-0.466,0.031
					C269.093,59.177,269.077,59.177,269.061,59.177z M294.585,57.703l0.376,0.024l0.368-0.024l0.297-0.064l0.21-0.081l0.136-0.097
					l0.102-0.116l0.077-0.157l0.06-0.223l0.024-0.322l0.007-14.385l-0.041-0.674l-0.105-0.603l-0.178-0.544l-0.243-0.507l-0.32-0.46
					l-0.396-0.433l-0.472-0.395l-0.563-0.36l-0.655-0.33l-0.743-0.284l-0.848-0.25l-0.938-0.21l-1.033-0.159l-1.137-0.114
					l-1.221-0.073l-1.332-0.023l-8.07-0.007l-1.3,0.029l-1.209,0.073l-1.123,0.12l-1.025,0.159l-0.939,0.205l-0.838,0.249
					l-0.758,0.291l-0.658,0.325l-0.568,0.36l-0.478,0.395l-0.398,0.43l-0.316,0.462l-0.249,0.501l-0.172,0.547l-0.108,0.602
					l-0.031,0.673l0.009,14.397l0.015,0.327l0.055,0.209l0.078,0.156l0.103,0.118l0.136,0.096l0.208,0.08l0.305,0.064l0.375,0.024
					l0.367-0.024l0.297-0.063l0.203-0.08l0.137-0.097l0.108-0.123l0.082-0.157l0.056-0.214l0.024-0.324V42.237
					c0-0.018,0.001-0.037,0.002-0.055l0.025-0.331c0.003-0.036,0.008-0.072,0.016-0.107l0.071-0.306
					c0.008-0.036,0.019-0.071,0.033-0.105l0.113-0.284c0.014-0.036,0.032-0.071,0.052-0.104l0.158-0.264
					c0.019-0.031,0.04-0.061,0.063-0.089l0.203-0.246c0.022-0.027,0.046-0.052,0.072-0.076l0.245-0.222
					c0.023-0.021,0.048-0.041,0.074-0.059l0.292-0.201c0.023-0.016,0.046-0.03,0.071-0.043l0.336-0.179
					c0.019-0.01,0.039-0.019,0.059-0.028l0.379-0.16c0.022-0.009,0.044-0.017,0.067-0.025l0.432-0.134
					c0.013-0.004,0.026-0.008,0.04-0.011l0.466-0.117c0.016-0.004,0.032-0.007,0.047-0.01l0.513-0.092
					c0.012-0.002,0.023-0.004,0.035-0.005l0.564-0.073c0.009-0.001,0.018-0.002,0.027-0.003l0.601-0.055
					c0.011-0.001,0.021-0.002,0.032-0.002l0.651-0.031c0.009,0,0.018-0.001,0.028-0.001l0.691-0.006l10.479-0.006l0.698,0.013
					c0.007,0,0.014,0,0.021,0.001l0.639,0.031c0.01,0.001,0.021,0.001,0.031,0.002l0.602,0.055c0.01,0.001,0.02,0.002,0.029,0.003
					l0.55,0.073c0.011,0.001,0.022,0.003,0.033,0.005l0.512,0.092c0.016,0.003,0.031,0.006,0.046,0.01l0.468,0.117
					c0.016,0.004,0.031,0.008,0.047,0.013l0.417,0.134c0.02,0.006,0.04,0.014,0.059,0.022l0.38,0.16
					c0.02,0.009,0.04,0.018,0.06,0.029l0.336,0.179c0.025,0.013,0.048,0.028,0.072,0.044l0.29,0.201
					c0.025,0.017,0.048,0.036,0.071,0.056l0.247,0.222c0.027,0.024,0.052,0.05,0.074,0.078l0.203,0.246
					c0.024,0.029,0.045,0.059,0.064,0.091l0.157,0.264c0.019,0.032,0.035,0.065,0.049,0.099l0.115,0.284
					c0.015,0.036,0.026,0.073,0.035,0.111l0.069,0.306c0.008,0.035,0.013,0.07,0.016,0.105l0.025,0.333
					c0.001,0.018,0.002,0.036,0.002,0.054l0.006,14.414l0.015,0.332l0.05,0.204l0.081,0.157l0.099,0.117l0.139,0.096l0.207,0.081
					L294.585,57.703z"/>
			</g>
		</g>
	</g>
	<g id="LWPOLYLINE_9_">
		<g>
			<polyline fill="#FFFFFF" points="317.778,39.527 318.175,39.51 318.522,39.428 318.813,39.294 319.053,39.104 319.237,38.864 
				319.369,38.575 319.451,38.224 319.477,37.825 319.451,37.419 319.369,37.063 319.237,36.767 319.053,36.523 318.813,36.338 
				318.522,36.208 318.175,36.135 317.777,36.117 309.517,36.11 309.517,30.803 309.484,30.382 309.396,30.013 309.243,29.7 
				309.035,29.448 308.763,29.251 308.433,29.109 308.047,29.022 307.6,28.998 307.105,29.022 306.681,29.109 306.32,29.251 
				306.031,29.448 305.803,29.7 305.638,30.013 305.544,30.382 305.512,30.805 305.518,36.11 303.507,36.11 303.127,36.135 
				302.793,36.208 302.513,36.338 302.28,36.516 302.102,36.754 301.977,37.038 301.893,37.382 301.868,37.776 301.893,38.182 
				301.97,38.538 302.102,38.833 302.292,39.08 302.533,39.276 302.822,39.418 303.172,39.504 303.571,39.534 305.518,39.527 
				305.518,56.669 305.537,57.089 305.625,57.445 305.784,57.751 306.006,58.004 306.296,58.202 306.651,58.336 307.068,58.422 
				307.555,58.453 308.01,58.422 308.403,58.336 308.736,58.202 309.015,58.004 309.231,57.751 309.383,57.445 309.478,57.089 
				309.517,56.671 309.517,39.527 317.778,39.527 			"/>
			<path fill="#FFFFFF" d="M307.555,59.177c-0.015,0-0.031,0-0.046-0.001l-0.487-0.031c-0.034-0.002-0.068-0.007-0.102-0.014
				l-0.416-0.087c-0.037-0.008-0.073-0.018-0.107-0.031l-0.356-0.134c-0.054-0.02-0.105-0.047-0.153-0.08l-0.29-0.198
				c-0.05-0.034-0.096-0.074-0.135-0.12l-0.222-0.253c-0.039-0.044-0.073-0.093-0.1-0.146l-0.158-0.306
				c-0.026-0.05-0.046-0.103-0.06-0.158l-0.088-0.356c-0.011-0.046-0.018-0.093-0.02-0.141l-0.019-0.42
				c-0.001-0.011-0.001-0.022-0.001-0.034V40.254l-1.22,0.004c-0.016,0-0.038-0.001-0.057-0.002l-0.399-0.03
				c-0.04-0.003-0.079-0.009-0.118-0.019l-0.349-0.086c-0.051-0.012-0.1-0.03-0.147-0.053l-0.29-0.142
				c-0.049-0.024-0.096-0.054-0.139-0.089l-0.24-0.196c-0.043-0.035-0.082-0.076-0.116-0.12l-0.19-0.247
				c-0.034-0.045-0.063-0.093-0.086-0.145l-0.132-0.295c-0.02-0.046-0.036-0.093-0.047-0.142l-0.078-0.356
				c-0.008-0.036-0.013-0.073-0.015-0.11l-0.025-0.406c-0.002-0.03-0.002-0.059,0-0.089l0.025-0.394
				c0.003-0.043,0.009-0.086,0.02-0.128l0.084-0.344c0.01-0.041,0.024-0.081,0.041-0.12l0.125-0.284
				c0.022-0.05,0.05-0.097,0.082-0.141l0.178-0.238c0.04-0.054,0.087-0.101,0.141-0.142l0.233-0.178
				c0.042-0.032,0.086-0.059,0.134-0.081l0.28-0.13c0.048-0.023,0.099-0.04,0.152-0.051l0.334-0.073
				c0.035-0.008,0.07-0.013,0.106-0.015l0.38-0.025c0.016-0.001,0.032-0.002,0.048-0.002h1.286l-0.005-4.58
				c0-0.018,0.001-0.037,0.002-0.055l0.032-0.423c0.003-0.042,0.01-0.083,0.02-0.124l0.094-0.369c0.014-0.056,0.035-0.11,0.062-0.16
				l0.166-0.313c0.028-0.053,0.062-0.102,0.102-0.147l0.227-0.252c0.039-0.043,0.083-0.081,0.131-0.114l0.289-0.197
				c0.045-0.03,0.092-0.055,0.142-0.075l0.361-0.142c0.039-0.015,0.078-0.027,0.119-0.035l0.424-0.087
				c0.036-0.007,0.073-0.012,0.11-0.014l0.494-0.024c0.025-0.001,0.05-0.001,0.074,0l0.448,0.024c0.04,0.002,0.081,0.008,0.12,0.017
				l0.386,0.087c0.043,0.01,0.086,0.023,0.127,0.041l0.33,0.142c0.049,0.021,0.096,0.048,0.139,0.079l0.272,0.197
				c0.05,0.036,0.095,0.078,0.134,0.126l0.208,0.252c0.036,0.044,0.067,0.092,0.092,0.143l0.153,0.313
				c0.023,0.048,0.041,0.097,0.054,0.149l0.088,0.369c0.009,0.037,0.015,0.075,0.018,0.113l0.033,0.421
				c0.001,0.018,0.002,0.037,0.002,0.056v4.584l7.537,0.006c0.011,0,0.022,0,0.033,0.001l0.397,0.018
				c0.039,0.002,0.077,0.007,0.115,0.015l0.348,0.073c0.051,0.011,0.101,0.027,0.148,0.048l0.29,0.13
				c0.051,0.023,0.1,0.052,0.144,0.086l0.24,0.184c0.052,0.04,0.098,0.086,0.138,0.139l0.184,0.245
				c0.033,0.044,0.061,0.091,0.083,0.141l0.132,0.296c0.019,0.043,0.034,0.087,0.044,0.132l0.082,0.356
				c0.009,0.038,0.015,0.077,0.017,0.117l0.026,0.405c0.002,0.031,0.002,0.062,0,0.093l-0.026,0.4
				c-0.003,0.04-0.008,0.08-0.018,0.119l-0.082,0.35c-0.011,0.047-0.026,0.092-0.046,0.135l-0.132,0.289
				c-0.023,0.05-0.051,0.096-0.084,0.14l-0.184,0.24c-0.036,0.047-0.079,0.09-0.125,0.127l-0.24,0.19
				c-0.045,0.035-0.094,0.065-0.145,0.089l-0.29,0.134c-0.045,0.021-0.091,0.037-0.139,0.048l-0.348,0.081
				c-0.043,0.01-0.087,0.016-0.132,0.018l-0.397,0.018c-0.011,0.001-0.022,0.001-0.033,0.001h-7.537v16.42
				c0,0.022-0.001,0.045-0.003,0.067l-0.039,0.418c-0.004,0.04-0.011,0.08-0.021,0.12l-0.095,0.356
				c-0.013,0.047-0.03,0.092-0.051,0.136l-0.152,0.306c-0.026,0.053-0.059,0.103-0.097,0.148l-0.215,0.253
				c-0.039,0.046-0.084,0.086-0.133,0.121l-0.279,0.198c-0.046,0.033-0.096,0.06-0.148,0.081l-0.333,0.134
				c-0.037,0.015-0.075,0.027-0.114,0.035l-0.393,0.087c-0.035,0.008-0.071,0.013-0.107,0.015l-0.456,0.031
				C307.587,59.177,307.571,59.177,307.555,59.177z M307.165,57.703l0.388,0.025l0.354-0.024l0.281-0.062l0.199-0.08l0.136-0.096
				l0.099-0.116l0.08-0.161l0.06-0.227l0.03-0.323v-17.11c0-0.4,0.324-0.724,0.724-0.724h8.245l0.314-0.014l0.211-0.049l0.145-0.067
				l0.102-0.081l0.08-0.104l0.068-0.149l0.052-0.222l0.019-0.293l-0.019-0.3l-0.053-0.23l-0.07-0.157l-0.076-0.1l-0.095-0.073
				l-0.141-0.064l-0.214-0.045l-0.323-0.015l-8.244-0.007c-0.4,0-0.723-0.324-0.723-0.724v-5.279l-0.026-0.336l-0.057-0.236
				l-0.08-0.165l-0.095-0.115l-0.132-0.095l-0.195-0.084l-0.261-0.059l-0.35-0.019l-0.402,0.02l-0.308,0.063l-0.228,0.089
				l-0.151,0.102l-0.109,0.12l-0.083,0.157l-0.057,0.224l-0.025,0.332l0.005,5.278c0,0.192-0.076,0.376-0.212,0.512
				c-0.136,0.136-0.32,0.212-0.512,0.212h-1.986l-0.303,0.02l-0.203,0.044l-0.135,0.063l-0.091,0.069l-0.068,0.091l-0.067,0.151
				l-0.054,0.219l-0.018,0.285l0.019,0.305l0.05,0.228l0.067,0.149l0.087,0.113l0.111,0.091l0.145,0.071l0.215,0.053l0.311,0.024
				l1.918-0.006c0.001,0,0.002,0,0.002,0c0.192,0,0.375,0.076,0.511,0.211c0.136,0.136,0.213,0.32,0.213,0.513v17.125l0.015,0.332
				l0.051,0.204l0.078,0.152l0.104,0.118l0.142,0.097l0.222,0.084L307.165,57.703z"/>
		</g>
	</g>
	<g>
		<path fill="#FFFFFF" d="M354.404,41.31l-0.114-0.663l-0.19-0.621l-0.257-0.579l-0.343-0.527l-0.41-0.481l-0.487-0.436
			l-0.563-0.392l-0.639-0.35l-0.713-0.301l-0.792-0.253l-0.859-0.208l-0.943-0.166l-1.011-0.118l-1.087-0.075l-1.166-0.023
			l-9.356-0.007l-1.39,0.043l-1.29,0.087l-1.202,0.141l-1.114,0.19l-1.025,0.24l-0.937,0.29l-0.839,0.343l-0.753,0.393l-0.665,0.449
			l-0.576,0.498l-0.48,0.547l-0.391,0.602l-0.305,0.645l-0.215,0.707l-0.126,0.75l-0.032,0.806l0.007,8.345l0.026,0.825l0.126,0.769
			l0.215,0.714l0.309,0.664l0.4,0.614l0.487,0.56l0.582,0.504l0.671,0.454l0.765,0.4l0.854,0.344l0.941,0.296l1.038,0.245
			l1.127,0.191l1.215,0.135l1.308,0.086l1.399,0.031h3.474l0.403-0.031l0.353-0.086l0.305-0.135l0.245-0.191l0.19-0.239l0.14-0.295
			l0.088-0.352l0.031-0.4l-0.031-0.405l-0.088-0.344l-0.14-0.295l-0.19-0.24l-0.245-0.184l-0.305-0.13l-0.353-0.072l-0.405-0.018
			h-4.567l-0.772-0.013l-0.714-0.031l-0.671-0.056l-0.619-0.079l-0.575-0.099l-0.518-0.13l-0.476-0.148l-0.424-0.164l-0.372-0.198
			l-0.323-0.215l-0.272-0.239l-0.229-0.259l-0.176-0.29l-0.127-0.307l-0.075-0.325l-0.026-0.356v-2.711h24.444l0.439-0.019
			l0.379-0.08l0.323-0.135l0.259-0.202l0.203-0.258l0.146-0.314l0.087-0.38l0.027-0.436l0.006-5.135L354.404,41.31z M328.136,45.54
			v-2.945l0.026-0.363l0.075-0.35l0.127-0.326l0.176-0.295l0.229-0.276l0.272-0.253l0.323-0.226l0.372-0.203l0.424-0.178l0.476-0.16
			l0.518-0.129l0.575-0.112l0.619-0.08l0.671-0.06l0.714-0.037l0.772-0.013l11.16-0.006l1.124,0.049l0.975,0.129l0.822,0.221
			l0.671,0.314l0.524,0.406l0.375,0.492l0.221,0.583l0.07,0.671l0.006,3.147H328.136z"/>
		<path fill="#FFFFFF" d="M339.074,58.741H335.6l-1.415-0.031c-0.01,0-0.021-0.001-0.032-0.001l-1.308-0.086
			c-0.011-0.001-0.022-0.002-0.033-0.003l-1.215-0.135c-0.014-0.002-0.027-0.003-0.041-0.006l-1.127-0.191
			c-0.015-0.003-0.03-0.006-0.045-0.009l-1.038-0.245c-0.017-0.004-0.034-0.009-0.051-0.014l-0.941-0.296
			c-0.018-0.006-0.036-0.012-0.053-0.019l-0.854-0.344c-0.022-0.009-0.044-0.019-0.065-0.03l-0.765-0.4
			c-0.024-0.013-0.047-0.027-0.07-0.042l-0.671-0.454c-0.024-0.016-0.047-0.034-0.068-0.053l-0.582-0.504
			c-0.026-0.022-0.05-0.046-0.072-0.072l-0.486-0.56c-0.022-0.025-0.042-0.052-0.06-0.079l-0.4-0.614
			c-0.019-0.029-0.035-0.059-0.05-0.09l-0.309-0.664c-0.015-0.031-0.027-0.064-0.037-0.097l-0.215-0.714
			c-0.009-0.03-0.016-0.061-0.021-0.092l-0.126-0.769c-0.005-0.031-0.008-0.063-0.009-0.095l-0.026-0.825c0-0.007,0-0.015,0-0.022
			l-0.007-8.345c0-0.01,0-0.02,0.001-0.03l0.032-0.806c0.001-0.031,0.004-0.061,0.009-0.091l0.126-0.75
			c0.005-0.031,0.012-0.061,0.021-0.091l0.215-0.707c0.01-0.034,0.023-0.067,0.038-0.099l0.305-0.645
			c0.014-0.029,0.029-0.058,0.047-0.085l0.391-0.602c0.019-0.029,0.04-0.057,0.063-0.083l0.48-0.547
			c0.022-0.025,0.045-0.048,0.07-0.07l0.576-0.498c0.022-0.019,0.045-0.036,0.068-0.052l0.665-0.449
			c0.023-0.015,0.046-0.029,0.07-0.042l0.753-0.393c0.02-0.011,0.041-0.02,0.062-0.029l0.839-0.343
			c0.02-0.008,0.039-0.015,0.06-0.021l0.937-0.29c0.016-0.005,0.032-0.009,0.049-0.013l1.025-0.24
			c0.015-0.003,0.029-0.006,0.044-0.009l1.114-0.19c0.012-0.002,0.025-0.004,0.037-0.005l1.202-0.141
			c0.012-0.001,0.024-0.003,0.036-0.003l1.29-0.087c0.009-0.001,0.018-0.001,0.027-0.001l1.39-0.043c0.008,0,0.018,0.002,0.023,0
			l9.356,0.007l1.179,0.023c0.012,0,0.024,0.001,0.036,0.002l1.087,0.075c0.011,0.001,0.023,0.002,0.034,0.003l1.011,0.118
			c0.014,0.002,0.028,0.004,0.042,0.006l0.943,0.166c0.015,0.003,0.03,0.006,0.045,0.009l0.859,0.208
			c0.017,0.004,0.033,0.009,0.049,0.014l0.792,0.253c0.021,0.007,0.041,0.014,0.061,0.023l0.713,0.301
			c0.023,0.01,0.045,0.02,0.067,0.032l0.639,0.35c0.023,0.012,0.045,0.026,0.066,0.041l0.563,0.392
			c0.024,0.017,0.047,0.035,0.069,0.055l0.487,0.436c0.024,0.021,0.046,0.045,0.067,0.069l0.411,0.481
			c0.02,0.024,0.039,0.049,0.056,0.075l0.343,0.527c0.021,0.032,0.039,0.066,0.055,0.101l0.257,0.579
			c0.012,0.027,0.022,0.054,0.031,0.082l0.19,0.621c0.009,0.029,0.016,0.059,0.021,0.09l0.114,0.663
			c0.004,0.026,0.007,0.051,0.009,0.077l0.045,0.712c0.001,0.015,0.001,0.031,0.001,0.046l-0.006,5.135c0,0.015,0,0.029-0.001,0.044
			l-0.027,0.436c-0.002,0.039-0.008,0.079-0.017,0.117l-0.087,0.38c-0.011,0.05-0.028,0.098-0.049,0.144l-0.146,0.314
			c-0.023,0.05-0.053,0.098-0.087,0.141l-0.203,0.258c-0.036,0.046-0.078,0.087-0.124,0.123l-0.259,0.202
			c-0.051,0.04-0.107,0.073-0.166,0.098l-0.323,0.135c-0.042,0.017-0.085,0.031-0.13,0.04l-0.379,0.08
			c-0.039,0.008-0.079,0.013-0.119,0.015l-0.439,0.019c-0.01,0-0.02,0.001-0.031,0.001h-23.72v1.96l0.02,0.274l0.049,0.213
			l0.082,0.2l0.114,0.187l0.156,0.176l0.201,0.177l0.253,0.168l0.302,0.161l0.36,0.139l0.433,0.134l0.472,0.118l0.533,0.092
			l0.588,0.075l0.641,0.053l0.7,0.03l0.752,0.012h4.555c0.011,0,0.022,0,0.033,0.001l0.405,0.018
			c0.038,0.002,0.076,0.006,0.113,0.014l0.353,0.072c0.048,0.01,0.094,0.024,0.139,0.043l0.305,0.13
			c0.054,0.023,0.104,0.052,0.151,0.087l0.245,0.184c0.05,0.037,0.095,0.081,0.133,0.13l0.19,0.24
			c0.034,0.043,0.062,0.089,0.086,0.138l0.14,0.295c0.02,0.042,0.036,0.086,0.048,0.132l0.088,0.344
			c0.01,0.041,0.017,0.082,0.02,0.124l0.031,0.405c0.003,0.037,0.003,0.074,0,0.112l-0.031,0.4c-0.003,0.04-0.01,0.08-0.019,0.12
			l-0.088,0.352c-0.012,0.047-0.028,0.092-0.049,0.135l-0.14,0.295c-0.024,0.05-0.053,0.097-0.087,0.14l-0.19,0.239
			c-0.036,0.045-0.076,0.085-0.121,0.12l-0.245,0.191c-0.047,0.036-0.098,0.067-0.152,0.091l-0.305,0.135
			c-0.039,0.017-0.08,0.031-0.121,0.041l-0.353,0.086c-0.038,0.009-0.077,0.016-0.117,0.019l-0.403,0.031
			C339.111,58.74,339.093,58.741,339.074,58.741z M334.233,57.263l1.383,0.031l3.43,0l0.316-0.024l0.233-0.057l0.165-0.073
			l0.107-0.083l0.085-0.106l0.074-0.155l0.056-0.222l0.022-0.284l-0.022-0.286l-0.055-0.214l-0.075-0.157l-0.081-0.103l-0.1-0.075
			l-0.157-0.067l-0.226-0.046l-0.332-0.015h-4.55l-0.783-0.013l-0.734-0.031c-0.009,0-0.019-0.001-0.029-0.002l-0.671-0.056
			c-0.011-0.001-0.021-0.002-0.032-0.003l-0.619-0.079c-0.01-0.001-0.021-0.003-0.031-0.005l-0.575-0.099
			c-0.018-0.003-0.036-0.007-0.053-0.011l-0.518-0.13c-0.013-0.003-0.026-0.007-0.039-0.011l-0.476-0.148
			c-0.016-0.005-0.031-0.01-0.047-0.016l-0.424-0.164c-0.027-0.011-0.054-0.023-0.08-0.037l-0.372-0.198
			c-0.021-0.011-0.041-0.023-0.06-0.036l-0.323-0.215c-0.027-0.018-0.053-0.038-0.077-0.059l-0.272-0.239
			c-0.023-0.02-0.044-0.042-0.065-0.064l-0.228-0.259c-0.028-0.032-0.054-0.066-0.076-0.103l-0.176-0.29
			c-0.02-0.032-0.037-0.066-0.051-0.101l-0.127-0.307c-0.015-0.037-0.027-0.075-0.036-0.114l-0.075-0.325
			c-0.008-0.036-0.014-0.072-0.016-0.108l-0.026-0.356c-0.001-0.018-0.002-0.036-0.002-0.054v-2.711c0-0.4,0.324-0.724,0.724-0.724
			h24.429l0.363-0.015l0.254-0.054l0.171-0.071l0.113-0.088l0.097-0.123l0.079-0.168l0.057-0.247l0.022-0.355l0.006-5.09
			l-0.041-0.65l-0.1-0.579l-0.164-0.535l-0.216-0.486l-0.286-0.439l-0.349-0.408l-0.418-0.375l-0.495-0.345l-0.573-0.314
			l-0.649-0.274l-0.736-0.235l-0.812-0.197l-0.9-0.158l-0.973-0.113l-1.052-0.072l-1.148-0.022l-9.331-0.007l-1.365,0.042
			l-1.259,0.085l-1.165,0.137l-1.073,0.183l-0.978,0.229l-0.882,0.273l-0.779,0.318l-0.687,0.359l-0.595,0.402l-0.505,0.437
			l-0.413,0.47l-0.336,0.518l-0.262,0.553l-0.186,0.611l-0.111,0.659l-0.03,0.745l0.007,8.319l0.024,0.766l0.111,0.676l0.186,0.618
			l0.265,0.57l0.345,0.529l0.42,0.483l0.51,0.442l0.601,0.407l0.697,0.364l0.795,0.32l0.889,0.28l0.99,0.233l1.083,0.184
			l1.178,0.131L334.233,57.263z M350.451,46.264h-22.315c-0.4,0-0.724-0.324-0.724-0.724v-2.945c0-0.018,0.001-0.035,0.002-0.053
			l0.026-0.363c0.002-0.033,0.007-0.066,0.014-0.099l0.075-0.35c0.008-0.038,0.019-0.075,0.033-0.111l0.127-0.326
			c0.015-0.038,0.033-0.074,0.053-0.109l0.176-0.295c0.019-0.032,0.04-0.062,0.064-0.09l0.228-0.276
			c0.02-0.024,0.041-0.047,0.064-0.068l0.272-0.253c0.025-0.023,0.051-0.044,0.079-0.064l0.323-0.226
			c0.022-0.015,0.044-0.029,0.067-0.042l0.372-0.203c0.022-0.012,0.044-0.023,0.067-0.032l0.424-0.178
			c0.016-0.007,0.032-0.013,0.049-0.018l0.476-0.16c0.019-0.006,0.038-0.012,0.057-0.017l0.518-0.129
			c0.012-0.003,0.024-0.006,0.037-0.008l0.575-0.112c0.015-0.003,0.03-0.005,0.045-0.007l0.619-0.08
			c0.009-0.001,0.019-0.002,0.028-0.003l0.671-0.06c0.009-0.001,0.018-0.002,0.027-0.002l0.714-0.037
			c0.009-0.001,0.017-0.001,0.026-0.001l0.772-0.013l11.171-0.006c0.006-0.002,0.021,0,0.032,0.001l1.124,0.049
			c0.021,0.001,0.042,0.003,0.063,0.006l0.975,0.129c0.031,0.004,0.062,0.01,0.093,0.019l0.822,0.221
			c0.041,0.011,0.081,0.026,0.119,0.043l0.671,0.314c0.048,0.023,0.094,0.051,0.137,0.084l0.524,0.406
			c0.05,0.038,0.094,0.083,0.132,0.133l0.375,0.492c0.043,0.056,0.077,0.117,0.102,0.183l0.221,0.583
			c0.022,0.058,0.037,0.119,0.043,0.181l0.07,0.671c0.002,0.024,0.004,0.049,0.004,0.074l0.006,3.148
			c0,0.192-0.076,0.377-0.212,0.513C350.828,46.187,350.643,46.264,350.451,46.264z M328.86,44.816h20.866l-0.004-2.385l-0.056-0.54
			l-0.15-0.397l-0.254-0.333l-0.385-0.298l-0.54-0.253l-0.715-0.192l-0.896-0.119l-1.076-0.047l-11.144,0.006l-0.747,0.012
			l-0.688,0.036l-0.643,0.058l-0.582,0.075l-0.535,0.104l-0.472,0.117l-0.423,0.142l-0.366,0.153l-0.304,0.166l-0.249,0.174
			l-0.2,0.186l-0.163,0.197l-0.117,0.195l-0.084,0.215l-0.052,0.244l-0.021,0.287V44.816z"/>
	</g>
	<g id="LWPOLYLINE_12_">
		<g>
			<polyline fill="#FFFFFF" points="364.973,30.784 364.941,30.369 364.847,30.001 364.689,29.692 364.467,29.441 364.184,29.244 
				363.834,29.109 363.423,29.022 362.95,28.998 362.481,29.022 362.076,29.109 361.735,29.244 361.456,29.441 361.241,29.692 
				361.084,30.001 360.993,30.369 360.969,30.788 360.975,56.655 360.993,57.076 361.089,57.439 361.241,57.746 361.463,57.998 
				361.748,58.194 362.103,58.336 362.512,58.422 362.993,58.453 363.455,58.422 363.854,58.336 364.196,58.194 364.472,57.998 
				364.689,57.746 364.847,57.439 364.941,57.076 364.973,56.658 364.973,30.784 			"/>
			<path fill="#FFFFFF" d="M362.993,59.177c-0.016,0-0.031,0-0.046-0.001l-0.481-0.031c-0.035-0.002-0.069-0.007-0.104-0.014
				l-0.409-0.087c-0.04-0.008-0.08-0.021-0.118-0.036l-0.355-0.142c-0.05-0.02-0.098-0.045-0.142-0.076l-0.285-0.196
				c-0.049-0.034-0.093-0.073-0.132-0.117l-0.222-0.252c-0.042-0.048-0.078-0.101-0.106-0.158l-0.152-0.307
				c-0.022-0.044-0.039-0.091-0.052-0.138l-0.095-0.363c-0.013-0.049-0.021-0.1-0.023-0.152l-0.019-0.421
				c0-0.011-0.001-0.021-0.001-0.032l-0.006-25.867c0-0.014,0-0.028,0.001-0.043l0.025-0.419c0.003-0.044,0.009-0.088,0.02-0.131
				l0.091-0.368c0.013-0.054,0.032-0.105,0.057-0.154l0.157-0.309c0.026-0.052,0.058-0.1,0.096-0.143l0.215-0.251
				c0.039-0.046,0.084-0.087,0.134-0.122l0.279-0.196c0.047-0.033,0.097-0.06,0.15-0.081l0.341-0.135
				c0.037-0.015,0.075-0.026,0.114-0.035l0.404-0.087c0.038-0.008,0.076-0.013,0.115-0.015l0.47-0.024
				c0.025-0.001,0.049-0.001,0.074,0l0.473,0.024c0.038,0.002,0.076,0.007,0.113,0.015l0.411,0.087
				c0.038,0.008,0.075,0.019,0.111,0.033l0.35,0.135c0.054,0.021,0.105,0.048,0.152,0.081l0.283,0.196
				c0.048,0.033,0.091,0.072,0.13,0.116l0.222,0.251c0.04,0.045,0.074,0.095,0.101,0.148l0.159,0.309
				c0.025,0.048,0.044,0.1,0.058,0.152l0.094,0.368c0.01,0.04,0.017,0.082,0.02,0.123l0.032,0.414
				c0.001,0.018,0.002,0.037,0.002,0.055v25.874c0,0.018-0.001,0.037-0.002,0.055l-0.032,0.418c-0.003,0.043-0.01,0.085-0.021,0.126
				l-0.094,0.363c-0.014,0.053-0.033,0.103-0.058,0.152l-0.159,0.307c-0.026,0.05-0.058,0.097-0.094,0.14l-0.216,0.252
				c-0.038,0.045-0.082,0.085-0.13,0.119l-0.276,0.196c-0.044,0.031-0.091,0.057-0.141,0.078l-0.341,0.142
				c-0.04,0.017-0.082,0.03-0.124,0.039l-0.399,0.087c-0.035,0.008-0.07,0.013-0.105,0.015l-0.462,0.031
				C363.025,59.177,363.009,59.177,362.993,59.177z M362.611,57.703l0.381,0.024l0.361-0.024l0.283-0.062l0.206-0.086l0.138-0.098
				l0.103-0.12l0.082-0.159l0.057-0.222l0.025-0.326V30.811l-0.025-0.324l-0.058-0.228l-0.08-0.156l-0.104-0.118l-0.14-0.097
				l-0.215-0.083l-0.298-0.063l-0.379-0.019l-0.375,0.019l-0.288,0.062l-0.206,0.081l-0.135,0.095l-0.099,0.116l-0.08,0.158
				l-0.055,0.223l-0.02,0.331l0.006,25.83l0.015,0.328l0.057,0.217l0.077,0.155l0.1,0.113l0.145,0.099l0.222,0.089L362.611,57.703z"
				/>
		</g>
	</g>
	<g id="POINT">
		<path fill="#FFFFFF" d="M182.18,45.488c-0.083,0-0.161-0.033-0.219-0.091c-0.058-0.058-0.091-0.137-0.091-0.219
			c0-0.083,0.033-0.163,0.091-0.219c0.114-0.116,0.323-0.116,0.439-0.002c0.058,0.058,0.091,0.139,0.091,0.221
			c0,0.083-0.033,0.159-0.091,0.219C182.342,45.455,182.263,45.488,182.18,45.488z"/>
	</g>
	<g id="POINT_1_">
		
			<line fill="none" stroke="#000000" stroke-width="0" stroke-linecap="round" stroke-linejoin="round" stroke-miterlimit="10" x1="49.077" y1="44.918" x2="49.077" y2="44.918"/>
	</g>
	<g>
		<path fill="#F05A28" d="M267.994,75.697v-7.51h1.146v1.138c0.292-0.533,0.562-0.884,0.81-1.054c0.247-0.17,0.52-0.255,0.817-0.255
			c0.429,0,0.865,0.137,1.308,0.41l-0.438,1.181c-0.311-0.184-0.622-0.276-0.933-0.276c-0.278,0-0.528,0.084-0.75,0.251
			c-0.222,0.167-0.38,0.4-0.474,0.697c-0.141,0.453-0.212,0.948-0.212,1.485v3.932H267.994z"/>
		<path fill="#F05A28" d="M272.357,71.942c0-1.391,0.386-2.421,1.16-3.09c0.646-0.556,1.433-0.834,2.362-0.834
			c1.032,0,1.876,0.338,2.531,1.015c0.655,0.677,0.983,1.611,0.983,2.804c0,0.967-0.145,1.727-0.435,2.281
			c-0.29,0.554-0.712,0.984-1.266,1.29c-0.554,0.306-1.158,0.46-1.814,0.46c-1.051,0-1.901-0.337-2.549-1.011
			C272.681,74.182,272.357,73.21,272.357,71.942z M273.665,71.942c0,0.962,0.21,1.682,0.629,2.16
			c0.42,0.478,0.948,0.718,1.584,0.718c0.632,0,1.157-0.24,1.577-0.721c0.419-0.481,0.629-1.214,0.629-2.199
			c0-0.929-0.211-1.632-0.633-2.111c-0.422-0.478-0.946-0.718-1.573-0.718c-0.636,0-1.164,0.238-1.584,0.714
			C273.875,70.262,273.665,70.981,273.665,71.942z"/>
		<path fill="#F05A28" d="M282.059,75.697h-1.181V65.331h1.273v3.698c0.537-0.674,1.223-1.011,2.058-1.011
			c0.462,0,0.899,0.093,1.312,0.279c0.412,0.186,0.752,0.448,1.018,0.785c0.266,0.337,0.475,0.744,0.626,1.22
			c0.151,0.476,0.226,0.985,0.226,1.527c0,1.287-0.318,2.282-0.955,2.984c-0.636,0.702-1.4,1.054-2.291,1.054
			c-0.886,0-1.582-0.37-2.086-1.11V75.697z M282.045,71.886c0,0.9,0.123,1.551,0.368,1.952c0.401,0.655,0.943,0.983,1.626,0.983
			c0.556,0,1.037-0.241,1.443-0.725c0.405-0.483,0.608-1.203,0.608-2.16c0-0.98-0.195-1.704-0.583-2.171
			c-0.389-0.467-0.859-0.7-1.411-0.7c-0.556,0-1.037,0.242-1.443,0.725C282.247,70.272,282.045,70.971,282.045,71.886z"/>
		<path fill="#F05A28" d="M288.465,71.942c0-1.391,0.387-2.421,1.16-3.09c0.646-0.556,1.433-0.834,2.362-0.834
			c1.032,0,1.876,0.338,2.531,1.015c0.655,0.677,0.983,1.611,0.983,2.804c0,0.967-0.145,1.727-0.435,2.281
			c-0.29,0.554-0.712,0.984-1.266,1.29s-1.158,0.46-1.814,0.46c-1.051,0-1.901-0.337-2.549-1.011
			C288.789,74.182,288.465,73.21,288.465,71.942z M289.773,71.942c0,0.962,0.21,1.682,0.629,2.16
			c0.42,0.478,0.948,0.718,1.584,0.718c0.632,0,1.157-0.24,1.577-0.721c0.419-0.481,0.629-1.214,0.629-2.199
			c0-0.929-0.211-1.632-0.633-2.111c-0.422-0.478-0.946-0.718-1.573-0.718c-0.636,0-1.164,0.238-1.584,0.714
			C289.983,70.262,289.773,70.981,289.773,71.942z"/>
		<path fill="#F05A28" d="M299.772,74.559l0.184,1.124c-0.358,0.075-0.679,0.113-0.962,0.113c-0.462,0-0.82-0.073-1.075-0.219
			c-0.255-0.146-0.434-0.338-0.537-0.576c-0.104-0.238-0.156-0.739-0.156-1.503v-4.32h-0.933v-0.99h0.933v-1.86l1.266-0.764v2.623
			h1.28v0.99h-1.28v4.391c0,0.363,0.022,0.596,0.067,0.7c0.045,0.104,0.118,0.186,0.219,0.247c0.101,0.061,0.246,0.092,0.435,0.092
			C299.355,74.608,299.541,74.592,299.772,74.559z"/>
		<path fill="#F05A28" d="M301.024,66.794v-1.464h1.273v1.464H301.024z M301.024,75.697v-7.51h1.273v7.51H301.024z"/>
		<path fill="#F05A28" d="M309.134,72.946l1.252,0.163c-0.137,0.863-0.487,1.538-1.05,2.026c-0.563,0.488-1.255,0.732-2.076,0.732
			c-1.028,0-1.854-0.336-2.478-1.008c-0.625-0.672-0.937-1.634-0.937-2.888c0-0.811,0.134-1.52,0.403-2.128
			c0.269-0.608,0.678-1.064,1.227-1.368c0.549-0.304,1.147-0.456,1.792-0.456c0.815,0,1.483,0.206,2.001,0.619
			c0.519,0.413,0.851,0.998,0.997,1.757l-1.237,0.191c-0.118-0.504-0.326-0.884-0.626-1.138c-0.299-0.255-0.661-0.382-1.086-0.382
			c-0.641,0-1.162,0.23-1.563,0.689c-0.401,0.46-0.601,1.187-0.601,2.182c0,1.009,0.193,1.742,0.58,2.199
			c0.386,0.457,0.891,0.686,1.513,0.686c0.5,0,0.917-0.153,1.252-0.46C308.832,74.054,309.044,73.583,309.134,72.946z"/>
		<path fill="#F05A28" d="M314.989,73.455l1.259-0.198c0.071,0.504,0.268,0.891,0.59,1.16s0.774,0.403,1.354,0.403
			c0.584,0,1.018-0.119,1.301-0.357c0.283-0.238,0.424-0.517,0.424-0.838c0-0.287-0.125-0.514-0.375-0.679
			c-0.175-0.113-0.608-0.257-1.301-0.431c-0.933-0.236-1.58-0.439-1.941-0.612c-0.36-0.172-0.634-0.41-0.82-0.714
			c-0.186-0.304-0.279-0.64-0.279-1.008c0-0.335,0.077-0.644,0.23-0.93c0.153-0.285,0.362-0.522,0.626-0.711
			c0.198-0.146,0.468-0.27,0.81-0.371c0.342-0.101,0.708-0.152,1.1-0.152c0.589,0,1.107,0.085,1.552,0.255
			c0.445,0.17,0.774,0.4,0.986,0.689c0.212,0.29,0.358,0.678,0.438,1.163l-1.245,0.17c-0.057-0.386-0.22-0.688-0.491-0.905
			c-0.271-0.217-0.654-0.325-1.149-0.325c-0.585,0-1.002,0.097-1.252,0.29c-0.25,0.193-0.375,0.42-0.375,0.679
			c0,0.165,0.052,0.314,0.156,0.445c0.104,0.137,0.266,0.25,0.488,0.339c0.127,0.047,0.502,0.156,1.124,0.325
			c0.9,0.24,1.529,0.437,1.885,0.59c0.356,0.153,0.635,0.376,0.838,0.668c0.203,0.292,0.304,0.655,0.304,1.089
			c0,0.424-0.124,0.824-0.371,1.198c-0.247,0.375-0.604,0.665-1.071,0.87c-0.467,0.205-0.995,0.307-1.584,0.307
			c-0.976,0-1.72-0.203-2.231-0.608C315.457,74.853,315.131,74.252,314.989,73.455z"/>
		<path fill="#F05A28" d="M327.88,73.279l1.315,0.163c-0.207,0.769-0.592,1.365-1.153,1.789c-0.561,0.424-1.278,0.636-2.15,0.636
			c-1.098,0-1.969-0.338-2.613-1.015c-0.644-0.676-0.965-1.625-0.965-2.846c0-1.263,0.325-2.244,0.976-2.942
			c0.651-0.698,1.494-1.047,2.531-1.047c1.004,0,1.824,0.342,2.461,1.025c0.636,0.684,0.955,1.645,0.955,2.885
			c0,0.076-0.002,0.189-0.007,0.339h-5.6c0.047,0.825,0.28,1.457,0.7,1.895c0.42,0.438,0.943,0.658,1.57,0.658
			c0.467,0,0.865-0.122,1.195-0.368C327.425,74.207,327.686,73.816,327.88,73.279z M323.701,71.221h4.193
			c-0.057-0.632-0.217-1.105-0.481-1.421c-0.405-0.49-0.931-0.735-1.577-0.735c-0.585,0-1.076,0.196-1.474,0.587
			C323.963,70.043,323.743,70.566,323.701,71.221z"/>
		<path fill="#F05A28" d="M330.779,75.697v-7.51h1.146v1.138c0.292-0.533,0.562-0.884,0.81-1.054c0.248-0.17,0.52-0.255,0.817-0.255
			c0.429,0,0.865,0.137,1.308,0.41l-0.438,1.181c-0.311-0.184-0.622-0.276-0.933-0.276c-0.278,0-0.528,0.084-0.75,0.251
			c-0.222,0.167-0.38,0.4-0.474,0.697c-0.141,0.453-0.212,0.948-0.212,1.485v3.932H330.779z"/>
		<path fill="#F05A28" d="M337.702,75.697l-2.857-7.51h1.344l1.612,4.497c0.174,0.486,0.335,0.99,0.481,1.513
			c0.113-0.396,0.271-0.872,0.474-1.428l1.669-4.582h1.308l-2.843,7.51H337.702z"/>
		<path fill="#F05A28" d="M342.864,66.794v-1.464h1.273v1.464H342.864z M342.864,75.697v-7.51h1.273v7.51H342.864z"/>
		<path fill="#F05A28" d="M350.974,72.946l1.252,0.163c-0.137,0.863-0.487,1.538-1.05,2.026c-0.563,0.488-1.255,0.732-2.076,0.732
			c-1.028,0-1.854-0.336-2.478-1.008c-0.625-0.672-0.937-1.634-0.937-2.888c0-0.811,0.134-1.52,0.403-2.128
			c0.269-0.608,0.678-1.064,1.227-1.368c0.549-0.304,1.147-0.456,1.792-0.456c0.815,0,1.483,0.206,2.001,0.619
			c0.518,0.413,0.851,0.998,0.997,1.757l-1.237,0.191c-0.118-0.504-0.326-0.884-0.626-1.138c-0.3-0.255-0.661-0.382-1.086-0.382
			c-0.641,0-1.162,0.23-1.563,0.689c-0.401,0.46-0.601,1.187-0.601,2.182c0,1.009,0.193,1.742,0.58,2.199
			c0.387,0.457,0.891,0.686,1.513,0.686c0.5,0,0.917-0.153,1.252-0.46C350.672,74.054,350.884,73.583,350.974,72.946z"/>
		<path fill="#F05A28" d="M358.455,73.279l1.315,0.163c-0.207,0.769-0.592,1.365-1.153,1.789c-0.561,0.424-1.278,0.636-2.15,0.636
			c-1.098,0-1.969-0.338-2.613-1.015c-0.643-0.676-0.965-1.625-0.965-2.846c0-1.263,0.325-2.244,0.976-2.942
			c0.651-0.698,1.494-1.047,2.531-1.047c1.004,0,1.824,0.342,2.461,1.025c0.636,0.684,0.955,1.645,0.955,2.885
			c0,0.076-0.002,0.189-0.007,0.339h-5.6c0.047,0.825,0.28,1.457,0.7,1.895c0.419,0.438,0.943,0.658,1.57,0.658
			c0.467,0,0.865-0.122,1.195-0.368C358,74.207,358.262,73.816,358.455,73.279z M354.276,71.221h4.193
			c-0.057-0.632-0.217-1.105-0.481-1.421c-0.405-0.49-0.931-0.735-1.577-0.735c-0.585,0-1.076,0.196-1.474,0.587
			C354.539,70.043,354.319,70.566,354.276,71.221z"/>
		<path fill="#F05A28" d="M360.86,73.455l1.259-0.198c0.071,0.504,0.268,0.891,0.591,1.16c0.323,0.269,0.774,0.403,1.354,0.403
			c0.584,0,1.018-0.119,1.301-0.357c0.283-0.238,0.424-0.517,0.424-0.838c0-0.287-0.125-0.514-0.375-0.679
			c-0.175-0.113-0.608-0.257-1.301-0.431c-0.933-0.236-1.581-0.439-1.941-0.612c-0.361-0.172-0.634-0.41-0.82-0.714
			c-0.186-0.304-0.279-0.64-0.279-1.008c0-0.335,0.077-0.644,0.23-0.93s0.362-0.522,0.626-0.711c0.198-0.146,0.468-0.27,0.81-0.371
			c0.342-0.101,0.708-0.152,1.099-0.152c0.589,0,1.107,0.085,1.552,0.255c0.446,0.17,0.774,0.4,0.987,0.689
			c0.212,0.29,0.358,0.678,0.438,1.163l-1.245,0.17c-0.057-0.386-0.22-0.688-0.492-0.905c-0.271-0.217-0.654-0.325-1.149-0.325
			c-0.585,0-1.002,0.097-1.252,0.29c-0.25,0.193-0.375,0.42-0.375,0.679c0,0.165,0.052,0.314,0.156,0.445
			c0.104,0.137,0.266,0.25,0.488,0.339c0.127,0.047,0.502,0.156,1.124,0.325c0.9,0.24,1.528,0.437,1.884,0.59
			c0.356,0.153,0.635,0.376,0.838,0.668c0.203,0.292,0.304,0.655,0.304,1.089c0,0.424-0.124,0.824-0.371,1.198
			c-0.248,0.375-0.605,0.665-1.071,0.87c-0.467,0.205-0.995,0.307-1.584,0.307c-0.976,0-1.72-0.203-2.231-0.608
			C361.327,74.853,361.001,74.252,360.86,73.455z"/>
	</g>
</g>
</svg>
