<?xml version="1.0" encoding="utf-8"?>
<!-- Generator: Adobe Illustrator 17.0.0, SVG Export Plug-In . SVG Version: 6.00 Build 0)  -->
<!DOCTYPE svg PUBLIC "-//W3C//DTD SVG 1.1//EN" "http://www.w3.org/Graphics/SVG/1.1/DTD/svg11.dtd">
<svg version="1.1" id="Layer_1" xmlns="http://www.w3.org/2000/svg" xmlns:xlink="http://www.w3.org/1999/xlink" x="0px" y="0px"
	 width="116px" height="116px" viewBox="0 0 116 116" enable-background="new 0 0 116 116" xml:space="preserve">
<g>
	<g>
		<circle fill="#F05A28" cx="57.962" cy="57.148" r="45.57"/>
		<path fill="#404041" d="M57.962,103.151c-25.366,0-46.003-20.637-46.003-46.003c0-25.367,20.637-46.004,46.003-46.004
			c25.366,0,46.003,20.637,46.003,46.004C103.965,82.514,83.329,103.151,57.962,103.151z M57.962,12.011
			c-24.888,0-45.136,20.249-45.136,45.137c0,24.888,20.248,45.137,45.136,45.137c24.888,0,45.136-20.248,45.136-45.137
			C103.099,32.259,82.851,12.011,57.962,12.011z"/>
	</g>
	<g>
		<path fill="#F16522" d="M57.999,5.472C28.147,5.472,3.946,28.989,3.946,58c0,29.008,24.201,52.529,54.053,52.529
			c29.854,0,54.055-23.521,54.055-52.529C112.054,28.989,87.853,5.472,57.999,5.472z M57.999,102.647
			c-25.375,0-45.944-19.99-45.944-44.648c0-24.659,20.569-44.649,45.944-44.649c25.377,0,45.945,19.99,45.945,44.649
			C103.944,82.658,83.376,102.647,57.999,102.647z"/>
		<path fill="#FFFFFF" d="M57.999,111.25C27.796,111.25,3.224,87.362,3.224,58c0-29.362,24.572-53.25,54.775-53.25
			c30.204,0,54.777,23.888,54.777,53.25C112.776,87.362,88.203,111.25,57.999,111.25z M57.999,6.194
			C28.593,6.194,4.668,29.434,4.668,58c0,28.566,23.924,51.806,53.331,51.806c29.408,0,53.332-23.24,53.332-51.806
			C111.332,29.434,87.407,6.194,57.999,6.194z M57.999,103.37c-25.732,0-46.666-20.353-46.666-45.37
			c0-25.018,20.934-45.372,46.666-45.372c25.732,0,46.667,20.354,46.667,45.372C104.667,83.017,83.732,103.37,57.999,103.37z
			 M57.999,14.073c-24.935,0-45.221,19.706-45.221,43.927c0,24.221,20.286,43.926,45.221,43.926
			c24.936,0,45.223-19.705,45.223-43.926C103.222,33.778,82.935,14.073,57.999,14.073z"/>
	</g>
	<g id="CIRCLE_2_">
		<g>
			<path fill="#FFFFFF" d="M70.162,58c0-6.526-5.445-11.819-12.163-11.819c-6.716,0-12.161,5.293-12.161,11.819
				c0,6.526,5.445,11.819,12.161,11.819C64.717,69.819,70.162,64.526,70.162,58L70.162,58z"/>
			<path fill="#FFFFFF" d="M57.999,70.252c-6.945,0-12.595-5.497-12.595-12.253c0-6.756,5.65-12.252,12.595-12.252
				c6.946,0,12.596,5.496,12.596,12.252C70.595,64.756,64.945,70.252,57.999,70.252z M57.999,46.614
				c-6.467,0-11.728,5.108-11.728,11.386c0,6.278,5.261,11.386,11.728,11.386c6.468,0,11.729-5.108,11.729-11.386
				C69.728,51.722,64.467,46.614,57.999,46.614z"/>
		</g>
	</g>
	<g id="LINE_1_">
		<g>
			<path fill="#FFFFFF" d="M66.108,44.352c-5.018-2.814-11.199-2.814-16.216,0V23.858c0-4.353,3.63-7.881,8.107-7.881
				c4.479,0,8.109,3.528,8.109,7.881V44.352z"/>
			<path fill="#FFFFFF" d="M66.108,44.388c-0.006,0-0.012-0.002-0.018-0.005c-2.457-1.377-5.254-2.106-8.091-2.106
				c-2.836,0-5.634,0.728-8.091,2.106c-0.011,0.006-0.025,0.006-0.036,0c-0.011-0.006-0.018-0.018-0.018-0.031V23.858
				c0-4.365,3.653-7.917,8.144-7.917c4.491,0,8.145,3.551,8.145,7.917v20.494c0,0.013-0.007,0.025-0.018,0.031
				C66.121,44.386,66.115,44.388,66.108,44.388z M57.999,16.013c-4.45,0-8.071,3.519-8.071,7.844V44.29
				c2.454-1.364,5.244-2.085,8.072-2.085c2.828,0,5.618,0.721,8.072,2.085V23.858C66.072,19.532,62.451,16.013,57.999,16.013z"/>
		</g>
	</g>
	<g id="LINE_3_">
		<g>
			<path fill="#FFFFFF" d="M74.216,58c0,5.628-3.09,10.832-8.108,13.647l18.264,10.247c3.879,2.177,8.838,0.884,11.077-2.883
				c2.238-3.77,0.91-8.587-2.968-10.763L74.216,58z"/>
			<path fill="#FFFFFF" d="M88.42,82.987C88.42,82.987,88.42,82.987,88.42,82.987c-1.421,0-2.827-0.367-4.065-1.062L66.091,71.679
				c-0.011-0.006-0.018-0.019-0.018-0.032s0.007-0.025,0.018-0.032c4.99-2.8,8.089-8.018,8.089-13.616
				c0-0.013,0.007-0.025,0.018-0.031c0.011-0.006,0.025-0.007,0.036,0l18.265,10.248c1.903,1.067,3.255,2.793,3.809,4.859
				c0.543,2.026,0.249,4.14-0.828,5.954C94.029,81.47,91.324,82.987,88.42,82.987z M66.182,71.647L84.39,81.862
				c1.227,0.689,2.62,1.053,4.029,1.053c2.879,0,5.561-1.503,6.999-3.923c1.067-1.797,1.358-3.892,0.82-5.898
				c-0.549-2.047-1.889-3.757-3.775-4.814L74.252,58.061C74.23,63.641,71.143,68.837,66.182,71.647z"/>
		</g>
	</g>
	<g id="LINE_5_">
		<g>
			<path fill="#FFFFFF" d="M49.892,71.647c-5.016-2.816-8.108-8.019-8.108-13.647L23.518,68.248
				c-3.878,2.175-5.206,6.993-2.966,10.763c3.301,5.559,9.955,3.512,11.075,2.883L49.892,71.647z"/>
			<path fill="#FFFFFF" d="M27.377,82.82C27.377,82.82,27.377,82.82,27.377,82.82c-2.101,0-4.995-0.658-6.856-3.791
				c-1.078-1.813-1.373-3.927-0.83-5.953c0.553-2.066,1.906-3.792,3.809-4.859l18.266-10.248c0.011-0.006,0.025-0.006,0.036,0
				c0.011,0.006,0.018,0.018,0.018,0.031c0,5.597,3.1,10.815,8.089,13.616c0.011,0.006,0.018,0.019,0.018,0.032
				s-0.007,0.025-0.018,0.032L31.645,81.925C31.125,82.217,29.398,82.82,27.377,82.82z M41.748,58.061L23.536,68.28
				c-1.886,1.057-3.226,2.768-3.775,4.815c-0.537,2.006-0.245,4.101,0.823,5.897c1.843,3.104,4.711,3.755,6.793,3.755c0,0,0,0,0,0
				c2.007,0,3.718-0.596,4.233-0.885l18.208-10.215C44.857,68.836,41.771,63.64,41.748,58.061z"/>
		</g>
	</g>
	<g id="POINT_1_">
		
			<line fill="none" stroke="#000000" stroke-width="0" stroke-linecap="round" stroke-linejoin="round" stroke-miterlimit="10" x1="57.999" y1="58" x2="57.999" y2="58"/>
	</g>
</g>
</svg>
